<?xml version="1.0" encoding="utf-8"?>
<!-- Generator: Adobe Illustrator 27.2.0, SVG Export Plug-In . SVG Version: 6.00 Build 0)  -->
<svg version="1.1"
	 id="svg34" xmlns:svg="http://www.w3.org/2000/svg" xmlns:sodipodi="http://sodipodi.sourceforge.net/DTD/sodipodi-0.dtd" xmlns:inkscape="http://www.inkscape.org/namespaces/inkscape"
	 xmlns="http://www.w3.org/2000/svg" xmlns:xlink="http://www.w3.org/1999/xlink" x="0px" y="0px" viewBox="0 0 169.7 31"
	 style="enable-background:new 0 0 169.7 31;" xml:space="preserve">
<style type="text/css">
	.st0{fill:#FFFFFF;}
	.st1{fill:#A6CE39;}
</style>
<rect x="0" y="0" class="st0" width="30.5" height="30.5"/>
<sodipodi:namedview  bordercolor="#000000" borderopacity="0.25" id="namedview36" inkscape:current-layer="svg34" inkscape:cx="91.562903" inkscape:cy="22.757795" inkscape:deskcolor="#d1d1d1" inkscape:pagecheckerboard="0" inkscape:pageopacity="0.0" inkscape:showpageshadow="2" inkscape:window-height="1014" inkscape:window-maximized="1" inkscape:window-width="1920" inkscape:window-x="-9" inkscape:window-y="-9" inkscape:zoom="4.7016858" pagecolor="#ffffff" showgrid="false">
	</sodipodi:namedview>
<g id="Layer_2_00000013154287714449403160000002763481961381100194_">
	<g id="Layer_1-2">
		<path id="path474" d="M162.4,4.7c-1.8-0.1-3.6,0.7-4.8,2.1c-1.2,1.8-1.8,3.9-1.7,6v10.3c-0.1,2.1,0.5,4.2,1.8,5.9
			c1.3,1.4,3.2,2.1,5.1,2c1.9,0.1,3.8-0.6,5.1-2c1.3-1.7,1.9-3.8,1.7-5.8l0-0.6h-2.9v0.9c0.1,1.3-0.3,2.6-1,3.8
			c-1.5,1.6-4,1.7-5.7,0.2c0,0-0.1-0.1-0.1-0.1c-0.7-1.1-1-2.4-0.9-3.8V12.3c-0.1-1.3,0.2-2.7,0.9-3.8c0.7-0.8,1.8-1.3,2.9-1.2
			c1-0.1,1.9,0.4,2.5,1.1c0.7,1.1,1.1,2.3,1.1,3.6v0.6h2.5V5.2h-2.3v1.4c-0.5-0.6-1.2-1.1-1.9-1.4C164.1,4.9,163.2,4.7,162.4,4.7z
			 M40.8,5.1v2.4h2.5v20.8h-2.5v2.3h7.4c3.2,0,5.5-0.8,6.9-2.4c1.4-1.6,2.1-4.1,2.1-7.7v-5.9c0-3.6-0.7-6.1-2.2-7.5s-4-2.1-7.8-2.1
			H40.8z M79.7,5.1v2.4h1.6l6,23.4h2.4l5.5-23.4h2V5.1h-6.9v2.4h2.2l-3.9,17.3L84.7,7.4h2.2V5.1H79.7z M124,5.2v2.3h1.6l5.9,23.2
			h2.3l5.5-23.2h1.9V5.2h-6.9v2.3h2.2l-3.9,17.1l-3.8-17.1h2.2V5.2H124z M142.2,5.2v2.3h2.4l-5.5,20.6h-1.9v2.3h7.2v-2.3h-2.6
			l1.5-5.5h6.9l1.4,5.5h-2.6v2.3h7.4v-2.3h-1.7l-5.5-20.6h2.5V5.2H142.2z M46.5,7.5h1.1c2.4,0,4,0.5,5,1.5s1.4,2.8,1.4,5.3V21
			c0,2.6-0.5,4.4-1.5,5.5c-1,1.1-2.7,1.7-5.1,1.7h-0.9V7.5z M74.5,8.3v5.9h-1.7v2.2h1.7v10.8c-0.1,1,0.1,2,0.6,2.9
			c0.6,0.6,1.4,0.9,2.2,0.8c0.3,0,0.7,0,1-0.1l1-0.1v-2.2h-0.5c-0.6,0-1-0.1-1.2-0.3s-0.3-0.6-0.3-1.5V16.5h2v-2.2h-2V8.3H74.5z
			 M118.7,8.3v5.9H117v2.2h1.7v10.8c-0.1,1,0.1,2,0.6,2.9c0.6,0.6,1.4,0.9,2.2,0.8c0.3,0,0.7,0,1-0.1l1.1-0.1v-2.2h-0.5
			c-0.6,0-1-0.1-1.2-0.3s-0.3-0.6-0.3-1.5V16.5h2v-2.2h-2V8.3H118.7z M98,8.7V11h2.8V8.7H98z M146.9,8.8l2.8,11.4H144L146.9,8.8z
			 M63.5,13.9c-1.4-0.1-2.7,0.6-3.5,1.7c-0.9,1.4-1.4,3.1-1.3,4.7v3c-0.1,2,0.2,3.9,1,5.7c0.6,1.2,1.9,1.9,3.2,1.9
			c0.7,0,1.5-0.2,2.1-0.6c0.7-0.5,1.3-1.1,1.8-1.7v2h4.3v-2.2h-1.7v-12h1.8v-2.2h-4.1v2c-0.4-0.7-0.9-1.3-1.6-1.8
			C64.9,14,64.2,13.9,63.5,13.9z M109.7,13.9c-1.5-0.1-2.9,0.6-3.8,1.9c-1,1.6-1.5,3.4-1.3,5.2v3.4c-0.1,1.7,0.4,3.4,1.3,4.8
			c1,1.2,2.4,1.8,3.9,1.7c1.3,0.1,2.7-0.4,3.6-1.3c1-1.1,1.5-2.5,1.6-4h-2.6c0,0.8-0.3,1.5-0.8,2.2c-0.8,0.9-2.3,0.9-3.2,0.1
			c-0.1-0.1-0.3-0.3-0.4-0.4c-0.5-1.1-0.7-2.2-0.6-3.4v-1h7.6v-2.2c0.1-1.8-0.4-3.6-1.4-5.1C112.7,14.5,111.3,13.8,109.7,13.9z
			 M96.2,14.2v2.3H98v11.9h-1.8v2.2h6.3v-2.2h-1.7V14.2H96.2z M110,16.3c0.7,0,1.3,0.3,1.7,0.9c0.4,0.8,0.7,1.7,0.6,2.6v1h-4.8v-0.6
			c-0.1-1,0.1-2.1,0.6-3C108.5,16.7,109.2,16.3,110,16.3z M64,16.4c0.8,0,1.5,0.3,2,1c0.5,0.9,0.7,2,0.6,3V24
			c0.1,1.1-0.2,2.2-0.8,3.2c-0.4,0.7-1.2,1.2-2.1,1.2c-0.7,0.1-1.3-0.3-1.7-0.9c-0.4-1-0.6-2.1-0.5-3.2v-4c-0.1-1,0.1-2.1,0.6-3
			C62.6,16.7,63.3,16.4,64,16.4z"/>
		<path id="path452" class="st1" d="M0,0v30.5C13.3,23.8,10.4,4.4,28.4,0H0z M30.5,0C17.3,6.7,20.2,26.1,2.1,30.5h28.5V0z"/>
	</g>
</g>
</svg>
