<svg width="630" height="200" version="1.1" xmlns="http://www.w3.org/2000/svg" desc="Created with imagetracer.js version 1.2.6" ><path fill="rgb(255,255,255)" stroke="rgb(255,255,255)" stroke-width="1" opacity="0.803921568627451" d="M 250 46 L 255 46 L 255 57 L 268 57 L 268 46 L 273 46 L 273 71.5 L 268 72 L 268 62 L 255 62 L 255 72 L 250 72 L 250 46 Z " /><path fill="rgb(255,255,255)" stroke="rgb(255,255,255)" stroke-width="1" opacity="0.803921568627451" d="M 288.5 46 L 297.5 46 L 305 52.5 Q 307.5 56 306 63.5 L 300.5 71 Q 297.2 73.7 290.5 73 Q 284 71.5 281 66.5 L 279 58.5 L 283.5 49 L 288.5 46 Z M 293 50 L 285 56 Q 283 66 290 68 L 298 67 L 301 63 L 300 55 L 297 51 L 293 50 Z " /><path fill="rgb(255,255,255)" stroke="rgb(255,255,255)" stroke-width="1" opacity="0.803921568627451" d="M 312 46 L 317 46.5 L 317 63.5 L 319.5 67 L 325.5 68 L 330 64.5 L 330 46.5 L 335 46 L 335 65.5 L 331.5 71 L 322.5 73 Q 315.9 72.1 313 67.5 L 312 63.5 L 312 46 Z " /><path fill="rgb(255,255,255)" stroke="rgb(255,255,255)" stroke-width="1" opacity="0.803921568627451" d="M 345.5 46 Q 354.2 44.3 357 48.5 Q 358.7 53.3 354.5 52 Q 353 49.5 347.5 51 L 346 52.5 L 349.5 56 L 357 61.5 L 358 66.5 L 356 71 L 347.5 73 L 342 71 L 341 66.5 L 343.5 65 Q 344.5 69 350.5 68 L 352 64.5 L 342 56.5 L 341 52.5 L 345.5 46 Z " /><path fill="rgb(255,255,255)" stroke="rgb(255,255,255)" stroke-width="1" opacity="0.803921568627451" d="M 364 46 L 378.5 46 L 379 48.5 L 379.5 50 L 369 50 L 369 57 L 379 57 L 379 61 L 369 61 L 369 68 L 380 68 L 380 72 L 363 72 L 363 50.5 L 364 46 Z " /><path fill="rgb(255,255,255)" stroke="rgb(255,255,255)" stroke-width="1" opacity="0.803921568627451" d="M 301.5 86 Q 310.9 86.1 315 91.5 Q 318.3 95.2 317 103.5 Q 315.6 109.6 310.5 112 Q 307 114.5 299.5 113 L 293 108.5 Q 289.5 105 290 97.5 Q 291.5 91 296.5 88 L 301.5 86 Z M 302 91 L 300 92 L 295 99 L 297 106 L 303 109 L 308 108 L 312 103 L 311 95 Q 309 90 302 91 Z " /><path fill="rgb(255,255,255)" stroke="rgb(255,255,255)" stroke-width="1" opacity="0.803921568627451" d="M 324 87 L 338.5 87 L 340 88.5 L 339.5 91 L 329 91 L 329 97 L 339 97 L 339 102 L 329 102 L 329 113 L 323 113 L 324 87 Z " /><path fill="rgb(255,255,255)" stroke="rgb(255,255,255)" stroke-width="1" opacity="0.803921568627451" d="M 211.5 127 Q 217 126.5 219 129.5 L 220 132.5 L 217.5 134 Q 216.1 131.4 211.5 132 L 210 135.5 L 220 143.5 L 221 148.5 L 217.5 153 L 208.5 154 L 205 151.5 L 205.5 146 Q 207.3 149.6 212.5 150 L 215 149 Q 216 145.2 213.5 144 L 206 140 Q 204.3 137.6 205 131.5 L 206 129 L 211.5 127 Z " /><path fill="rgb(255,255,255)" stroke="rgb(255,255,255)" stroke-width="1" opacity="0.803921568627451" d="M 228 127 L 233 127 L 233 139 L 238.5 139 L 245 138 L 246 128 L 250 128.5 L 250 141.5 L 251 142.5 L 251 154 L 246 154 L 246 145.5 L 245 143 L 233 143 L 233 154 L 228 154 L 228 127 Z " /><path fill="rgb(255,255,255)" stroke="rgb(255,255,255)" stroke-width="1" opacity="0.803921568627451" d="M 259 127 L 264 127.5 L 264 154 L 259 153.5 L 259 127 Z " /><path fill="rgb(255,255,255)" stroke="rgb(255,255,255)" stroke-width="1" opacity="0.803921568627451" d="M 273 127 L 275.5 127 L 287 138.5 L 292.5 145 L 293 127 L 298 127.5 L 298 154 Q 291.5 154.3 289 149.5 L 278.5 137 L 278 154 L 273 153.5 L 273 127 Z " /><path fill="rgb(255,255,255)" stroke="rgb(255,255,255)" stroke-width="1" opacity="0.803921568627451" d="M 312.5 127 L 318.5 128 L 320 129.5 Q 321.9 134.9 318.5 134 Q 317.1 131.4 312.5 132 L 310 133 L 313.5 138 L 320 142.5 L 321 149.5 L 318.5 153 Q 315.3 155.3 308.5 154 L 305 151.5 L 305.5 146 L 313.5 150 L 316 149 Q 316.8 144.3 312.5 143 L 306 138.5 L 305 132.5 L 308.5 128 L 312.5 127 Z " /><path fill="rgb(255,255,255)" stroke="rgb(255,255,255)" stroke-width="1" opacity="0.803921568627451" d="M 332.5 127 L 344 128 L 344 132 L 334 132 L 334 139 L 343.5 139 L 344 141.5 L 342.5 143 L 334 143 L 334 149 L 344 149 L 344 154 L 328 154 L 328 128 L 332.5 127 Z " /><path fill="rgb(255,255,255)" stroke="rgb(255,255,255)" stroke-width="1" opacity="0.803921568627451" d="M 363.5 127 L 373 129 L 374 132.5 L 371.5 134 Q 368.8 131.2 362.5 132 L 356 136.5 L 355 142.5 L 358.5 148 Q 360.8 150.7 366.5 150 L 369 149 Q 371.2 143.4 365.5 145 L 364 141 L 374 141 L 374 151.5 L 370.5 154 L 359.5 154 Q 353.4 152.6 351 147.5 L 350 136.5 L 354.5 130 L 363.5 127 Z " /><path fill="rgb(255,255,255)" stroke="rgb(255,255,255)" stroke-width="1" opacity="0.803921568627451" d="M 391.5 127 L 395 130.5 L 405 154 Q 400.4 155.3 399 152.5 L 397 147 L 387.5 147 L 386 148.5 L 384 154 L 379 154 L 379 151.5 L 389 129.5 L 391.5 127 Z M 392 136 L 389 142 L 394 142 L 392 136 Z " /><path fill="rgb(255,255,255)" stroke="rgb(255,255,255)" stroke-width="1" opacity="0.803921568627451" d="M 413.5 127 L 425 128 L 425 132 L 415 132 L 415 139 L 424.5 139 L 425 141.5 L 423.5 143 L 415 143 L 415 149 L 425 149 L 425 154 L 409 154 L 409 129.5 L 413.5 127 Z " /><path fill="rgb(0,0,0)" stroke="rgb(0,0,0)" stroke-width="1" opacity="0" d="M 0 0 L 629.5 0 L 630 0.5 L 630 200 L 0.5 200 L 0 199.5 L 0 0 Z M 250 46 L 250 72 L 255 72 L 255 62 L 268 62 L 268 72 L 273 72 L 273 46 L 268 46 L 268 57 L 255 57 L 255 46 L 250 46 Z M 289 46 L 284 49 L 279 59 L 281 67 Q 284 71 291 73 Q 297 74 301 71 L 306 64 Q 308 56 305 53 L 298 46 L 289 46 Z M 312 46 L 312 64 L 313 68 Q 316 72 323 73 L 332 71 L 335 66 L 335 46 L 330 47 L 330 65 L 326 68 L 320 67 L 317 64 L 317 47 L 312 46 Z M 346 46 L 341 53 L 342 57 L 352 65 L 351 68 Q 345 69 344 65 L 341 67 L 342 71 L 348 73 L 356 71 L 358 67 L 357 62 L 350 56 L 346 53 L 348 51 Q 353 50 355 52 Q 359 53 357 49 Q 354 44 346 46 Z M 364 46 L 363 51 L 363 72 L 380 72 L 380 68 L 369 68 L 369 61 L 379 61 L 379 57 L 369 57 L 369 50 L 380 50 L 379 49 L 379 46 L 364 46 Z M 302 86 L 297 88 Q 292 91 290 98 Q 289 105 293 109 L 300 113 Q 307 115 311 112 Q 316 110 317 104 Q 318 95 315 92 Q 311 86 302 86 Z M 324 87 L 323 113 L 329 113 L 329 102 L 339 102 L 339 97 L 329 97 L 329 91 L 340 91 L 340 89 L 339 87 L 324 87 Z M 212 127 L 206 129 L 205 132 Q 204 138 206 140 L 214 144 Q 216 145 215 149 L 213 150 Q 207 150 206 146 L 205 152 L 209 154 L 218 153 L 221 149 L 220 144 L 210 136 L 212 132 Q 216 131 218 134 L 220 133 L 219 130 Q 217 126 212 127 Z M 228 127 L 228 154 L 233 154 L 233 143 L 245 143 L 246 146 L 246 154 L 251 154 L 251 143 L 250 142 L 250 129 L 246 128 L 245 138 L 239 139 L 233 139 L 233 127 L 228 127 Z M 259 127 L 259 154 L 264 154 L 264 128 L 259 127 Z M 273 127 L 273 154 L 278 154 L 279 137 L 289 150 Q 292 154 298 154 L 298 128 L 293 127 L 293 145 L 287 139 L 276 127 L 273 127 Z M 313 127 L 309 128 L 305 133 L 306 139 L 313 143 Q 317 144 316 149 L 314 150 L 306 146 L 305 152 L 309 154 Q 315 155 319 153 L 321 150 L 320 143 L 314 138 L 310 133 L 313 132 Q 317 131 319 134 Q 322 135 320 130 L 319 128 L 313 127 Z M 333 127 L 328 128 L 328 154 L 344 154 L 344 149 L 334 149 L 334 143 L 343 143 L 344 142 L 344 139 L 334 139 L 334 132 L 344 132 L 344 128 L 333 127 Z M 364 127 L 355 130 L 350 137 L 351 148 Q 353 153 360 154 L 371 154 L 374 152 L 374 141 L 364 141 L 366 145 Q 371 143 369 149 L 367 150 Q 361 151 359 148 L 355 143 L 356 137 L 363 132 Q 369 131 372 134 L 374 133 L 373 129 L 364 127 Z M 392 127 L 389 130 L 379 152 L 379 154 L 384 154 L 386 149 L 388 147 L 397 147 L 399 153 Q 400 155 405 154 L 395 131 L 392 127 Z M 414 127 L 409 130 L 409 154 L 425 154 L 425 149 L 415 149 L 415 143 L 424 143 L 425 142 L 425 139 L 415 139 L 415 132 L 425 132 L 425 128 L 414 127 Z " /><path fill="rgb(0,0,0)" stroke="rgb(0,0,0)" stroke-width="1" opacity="0" d="M 292.5 50 L 296.5 51 L 300 54.5 L 301 62.5 L 297.5 67 L 289.5 68 Q 283.4 65.6 285 55.5 L 292.5 50 Z " /><path fill="rgb(0,0,0)" stroke="rgb(0,0,0)" stroke-width="1" opacity="0" d="M 301.5 91 Q 308.7 90.3 311 94.5 L 312 102.5 L 307.5 108 L 302.5 109 L 297 105.5 L 295 98.5 L 299.5 92 L 301.5 91 Z " /><path fill="rgb(0,0,0)" stroke="rgb(0,0,0)" stroke-width="1" opacity="0" d="M 391.5 136 L 394 142 L 389 141.5 L 391.5 136 Z " /></svg>