<svg width="1250" height="208" version="1.1" xmlns="http://www.w3.org/2000/svg" desc="Created with imagetracer.js version 1.2.6" ><path fill="rgb(43,166,236)" stroke="rgb(43,166,236)" stroke-width="1" opacity="0.984313725490196" d="M 1235.5 0 L 1248.5 0 L 1250 1.5 L 1250 96.5 L 1249.5 97 L 1220 97 L 1219 93.5 L 1219 35.5 L 1217.5 34 L 1193.5 34 L 1191 31.5 L 1193.5 28 L 1235.5 0 Z " /><path fill="rgb(43,166,236)" stroke="rgb(43,166,236)" stroke-width="1" opacity="0.984313725490196" d="M 597.5 34 L 619.5 34 L 630.5 37 Q 646.5 43 657 54.5 L 669 73.5 L 673 86.5 L 673 94 L 625.5 108 L 542 108 L 541 105.5 L 541 91.5 Q 546.2 62.7 565.5 48 Q 578.3 37.8 597.5 34 Z M 601 63 Q 590 65 584 71 Q 573 79 570 95 L 571 98 L 617 83 L 630 80 L 637 77 Q 627 61 601 63 Z " /><path fill="rgb(43,166,236)" stroke="rgb(43,166,236)" stroke-width="1" opacity="0.984313725490196" d="M 862.5 34 L 884.5 34 L 892.5 36 Q 909.8 41.7 921 53.5 Q 929.1 61.9 934 73.5 L 938 86.5 L 938 94 L 890.5 108 L 807 108 Q 804.7 102.5 806 91.5 Q 811.2 62.7 830.5 48 Q 843.1 37.6 862.5 34 Z M 866 63 Q 855 65 849 71 Q 838 79 835 95 L 836 98 L 882 83 L 895 80 L 902 77 Q 892 61 866 63 Z " /><path fill="rgb(43,166,236)" stroke="rgb(43,166,236)" stroke-width="1" opacity="0.984313725490196" d="M 1012.5 34 L 1033 34 L 1033 61.5 L 1031.5 63 Q 1017.2 61.2 1008.5 65 Q 998.2 69.2 992 77.5 L 986 89.5 L 985 105.5 L 984 108 L 956 108 L 956 88.5 Q 960.8 65.3 975.5 52 L 994.5 39 L 1012.5 34 Z " /><path fill="rgb(43,166,236)" stroke="rgb(43,166,236)" stroke-width="1" opacity="0.984313725490196" d="M 1053 34 L 1080.5 34 L 1081 36.5 L 1082 37.5 L 1082 68.5 Q 1085.4 80.1 1094.5 86 L 1104.5 90 L 1114.5 90 Q 1127.1 87.6 1133 78.5 L 1138 66.5 L 1138 35.5 L 1139.5 34 L 1165.5 34 L 1167 35.5 L 1167 116 L 1138 116 L 1138 109.5 L 1136.5 109 Q 1130.4 114.4 1120.5 116 L 1097.5 116 Q 1074.4 111.1 1063 94.5 Q 1055.7 85.3 1053 71.5 L 1053 34 Z " /><path fill="rgb(43,166,236)" stroke="rgb(43,166,236)" stroke-width="1" opacity="0.984313725490196" d="M 676.5 38 L 706.5 38 L 711 41.5 L 741.5 108 L 743 102.5 L 773.5 39 L 775.5 38 L 804.5 38 Q 806.8 38.8 806 42.5 L 774 109 L 708.5 109 L 706 106.5 L 675 42.5 L 675 39.5 L 676.5 38 Z " /><path fill="rgb(0,0,0)" stroke="rgb(0,0,0)" stroke-width="1" opacity="0" d="M 0 0 L 1234 0.5 L 1191 29.5 Q 1190.3 33.3 1192.5 34 L 1216.5 34 L 1219 36.5 L 1219 164.5 L 1221.5 167 L 1249.5 149 L 1250 208 L 0.5 208 L 0 207.5 L 0 0 Z M 63 32 L 52 35 L 47 38 Q 38 44 35 56 L 35 166 L 70 166 L 70 67 L 96 67 L 96 68 L 96 166 L 132 166 L 132 67 L 157 67 L 157 68 L 157 166 L 193 166 L 193 56 L 187 43 L 177 35 L 166 32 L 63 32 Z M 213 32 L 213 166 L 317 166 L 318 165 L 329 164 L 345 157 Q 355 150 358 136 L 357 120 L 351 109 Q 341 97 322 95 L 339 87 Q 348 81 350 69 L 350 60 L 346 48 L 338 39 L 326 34 L 316 32 L 213 32 Z M 395 32 L 387 34 L 377 40 Q 370 46 368 56 L 368 144 L 373 155 L 385 163 L 397 166 L 498 166 L 498 132 L 405 132 L 405 66 L 498 66 L 498 33 L 498 32 L 395 32 Z M 602 33 L 582 38 L 564 49 Q 546 63 541 89 L 541 111 L 542 116 Q 546 131 554 142 Q 569 162 600 167 L 614 167 L 634 162 Q 650 155 660 143 L 660 140 L 643 121 L 641 121 L 629 132 L 616 137 Q 603 138 596 135 Q 586 131 580 124 L 588 120 L 674 94 Q 672 72 661 59 Q 651 45 635 38 L 616 33 L 602 33 Z M 867 33 L 847 38 L 830 48 Q 812 62 806 89 L 806 111 L 807 116 Q 811 131 819 142 Q 834 162 865 167 L 879 167 L 890 165 Q 905 161 916 152 L 925 142 L 925 140 L 908 121 L 906 121 L 894 132 L 881 137 Q 868 138 861 135 Q 851 131 845 124 L 853 120 L 939 94 L 936 78 L 926 59 Q 916 46 902 39 L 887 34 L 867 33 Z M 1019 33 L 1018 34 L 1005 35 L 996 38 L 981 47 Q 964 59 957 82 L 956 93 L 955 94 L 955 165 L 958 167 L 984 167 L 985 166 L 985 97 L 988 86 L 992 79 Q 1003 61 1033 63 L 1034 62 L 1034 34 L 1032 33 L 1019 33 Z M 1055 33 L 1052 34 L 1052 69 Q 1054 70 1053 75 Q 1056 87 1063 96 L 1078 109 L 1094 116 L 1105 117 L 1106 118 L 1122 117 L 1136 111 L 1138 110 L 1136 127 L 1130 138 L 1121 146 L 1113 150 L 1103 152 L 1089 152 L 1089 181 L 1113 181 L 1122 179 Q 1134 175 1144 167 Q 1154 159 1160 148 L 1166 133 L 1167 121 L 1168 120 L 1168 36 L 1166 33 L 1141 33 L 1138 34 L 1138 65 L 1133 78 L 1123 87 L 1111 90 L 1100 88 L 1092 83 Q 1085 77 1082 67 L 1082 34 L 1080 33 L 1055 33 Z M 676 38 L 674 40 L 733 164 L 736 166 L 747 166 L 755 152 L 804 49 L 807 40 L 806 38 L 774 38 L 742 105 L 734 92 L 711 41 L 709 38 L 676 38 Z " /><path fill="rgb(0,0,0)" stroke="rgb(0,0,0)" stroke-width="1" opacity="0" d="M 602.5 63 L 612.5 63 L 620.5 65 Q 630.2 68.8 636 76.5 L 571.5 97 L 571 92.5 Q 574.6 78.6 584.5 71 Q 591.5 65 602.5 63 Z " /><path fill="rgb(0,0,0)" stroke="rgb(0,0,0)" stroke-width="1" opacity="0" d="M 867.5 63 L 877.5 63 L 885.5 65 Q 895.2 68.8 901 76.5 L 836.5 97 L 836 92.5 Q 839.6 78.6 849.5 71 Q 856.5 65 867.5 63 Z " /><path fill="rgb(0,0,0)" stroke="rgb(0,0,0)" stroke-width="1" opacity="0" d="M 251 68 L 310 68 L 310 130 L 251 130 L 251 68 Z " /><path fill="rgb(136,136,136)" stroke="rgb(136,136,136)" stroke-width="1" opacity="0.9882352941176471" d="M 65.5 32 L 162.5 32 L 175.5 35 L 187 43.5 L 193 57.5 L 193 166 L 158 166 L 158 67.5 L 157.5 67 L 132 67 L 132 164.5 L 130.5 166 L 97.5 166 L 96 164.5 L 96 67.5 L 95.5 67 L 70 67 L 70 166 L 35 166 L 35 57.5 Q 37.2 46.2 44.5 40 L 52.5 35 L 65.5 32 Z " /><path fill="rgb(136,136,136)" stroke="rgb(136,136,136)" stroke-width="1" opacity="0.9882352941176471" d="M 213 32 L 312.5 32 L 330.5 36 Q 338.9 39.1 344 45.5 L 349 55.5 L 350 66.5 L 348 74.5 L 341.5 84 Q 333 91.5 320 94.5 Q 341.9 96.6 352 110.5 Q 358.2 118.3 358 132.5 Q 355.8 133.7 357 138.5 L 353 147.5 L 346.5 155 L 330.5 163 L 321.5 165 L 313.5 165 L 312.5 166 L 213 166 L 213 32 Z M 250 67 L 250 130 L 310 130 L 310 67 L 250 67 Z " /><path fill="rgb(136,136,136)" stroke="rgb(136,136,136)" stroke-width="1" opacity="0.9882352941176471" d="M 397.5 32 L 497 32 L 497 66 L 404 66 L 404 132 L 498 132 L 498 166 L 399.5 166 L 385.5 163 Q 377.8 159.8 373 153.5 L 368 141.5 L 368 56.5 Q 370.8 45.3 378.5 39 L 385.5 35 L 397.5 32 Z " /><path fill="rgb(76,152,200)" stroke="rgb(76,152,200)" stroke-width="1" opacity="0.14901960784313725" d="M 1232.5 1 L 1231.5 3 L 1228.5 5 L 1230.5 2 L 1232.5 1 Z " /><path fill="rgb(76,152,200)" stroke="rgb(76,152,200)" stroke-width="1" opacity="0.14901960784313725" d="M 1226.5 5 L 1225.5 7 L 1226.5 5 Z " /><path fill="rgb(76,152,200)" stroke="rgb(76,152,200)" stroke-width="1" opacity="0.14901960784313725" d="M 1223.5 7 L 1222.5 9 L 1223.5 7 Z " /><path fill="rgb(76,152,200)" stroke="rgb(76,152,200)" stroke-width="1" opacity="0.14901960784313725" d="M 1220.5 9 L 1219.5 11 L 1220.5 9 Z " /><path fill="rgb(76,152,200)" stroke="rgb(76,152,200)" stroke-width="1" opacity="0.14901960784313725" d="M 1217.5 11 L 1216.5 13 L 1217.5 11 Z " /><path fill="rgb(76,152,200)" stroke="rgb(76,152,200)" stroke-width="1" opacity="0.14901960784313725" d="M 1214.5 13 L 1213.5 15 L 1214.5 13 Z " /><path fill="rgb(76,152,200)" stroke="rgb(76,152,200)" stroke-width="1" opacity="0.14901960784313725" d="M 1211.5 15 L 1210.5 17 L 1211.5 15 Z " /><path fill="rgb(76,152,200)" stroke="rgb(76,152,200)" stroke-width="1" opacity="0.14901960784313725" d="M 1208.5 17 L 1206.5 20 L 1203.5 22 L 1205.5 19 L 1208.5 17 Z " /><path fill="rgb(76,152,200)" stroke="rgb(76,152,200)" stroke-width="1" opacity="0.14901960784313725" d="M 1201.5 22 L 1200.5 24 L 1201.5 22 Z " /><path fill="rgb(76,152,200)" stroke="rgb(76,152,200)" stroke-width="1" opacity="0.14901960784313725" d="M 1198.5 24 L 1197.5 26 L 1198.5 24 Z " /><path fill="rgb(76,152,200)" stroke="rgb(76,152,200)" stroke-width="1" opacity="0.14901960784313725" d="M 1195.5 26 L 1194.5 28 L 1195.5 26 Z " /><path fill="rgb(76,152,200)" stroke="rgb(76,152,200)" stroke-width="1" opacity="0.14901960784313725" d="M 1192.5 28 L 1191.5 30 L 1192.5 28 Z " /><path fill="rgb(76,152,200)" stroke="rgb(76,152,200)" stroke-width="1" opacity="0.14901960784313725" d="M 62.5 32 L 65 32.5 L 62.5 33 L 62.5 32 Z " /><path fill="rgb(76,152,200)" stroke="rgb(76,152,200)" stroke-width="1" opacity="0.14901960784313725" d="M 163.5 32 L 166 32.5 L 163.5 33 L 163.5 32 Z " /><path fill="rgb(76,152,200)" stroke="rgb(76,152,200)" stroke-width="1" opacity="0.14901960784313725" d="M 313.5 32 L 316 32.5 L 313.5 33 L 313.5 32 Z " /><path fill="rgb(76,152,200)" stroke="rgb(76,152,200)" stroke-width="1" opacity="0.14901960784313725" d="M 394.5 32 L 397 32.5 L 394.5 33 L 394.5 32 Z " /><path fill="rgb(76,152,200)" stroke="rgb(76,152,200)" stroke-width="1" opacity="0.14901960784313725" d="M 497.5 32 L 498 65.5 L 497 65.5 L 497.5 32 Z " /><path fill="rgb(76,152,200)" stroke="rgb(76,152,200)" stroke-width="1" opacity="0.14901960784313725" d="M 1191.5 32 L 1192.5 34 L 1191.5 32 Z " /><path fill="rgb(76,152,200)" stroke="rgb(76,152,200)" stroke-width="1" opacity="0.14901960784313725" d="M 601.5 33 L 616 33.5 L 601.5 34 L 601.5 33 Z " /><path fill="rgb(76,152,200)" stroke="rgb(76,152,200)" stroke-width="1" opacity="0.14901960784313725" d="M 866.5 33 L 881 33.5 L 866.5 34 L 866.5 33 Z " /><path fill="rgb(76,152,200)" stroke="rgb(76,152,200)" stroke-width="1" opacity="0.14901960784313725" d="M 1018.5 33 L 1032 33.5 L 1018.5 34 L 1018.5 33 Z " /><path fill="rgb(76,152,200)" stroke="rgb(76,152,200)" stroke-width="1" opacity="0.14901960784313725" d="M 1054.5 33 L 1080 33.5 L 1054.5 34 L 1054.5 33 Z " /><path fill="rgb(76,152,200)" stroke="rgb(76,152,200)" stroke-width="1" opacity="0.14901960784313725" d="M 1140.5 33 L 1165.5 33 L 1168 35.5 L 1167.5 120 L 1167 35.5 L 1165.5 34 L 1140.5 34 L 1140.5 33 Z " /><path fill="rgb(76,152,200)" stroke="rgb(76,152,200)" stroke-width="1" opacity="0.14901960784313725" d="M 1009.5 34 L 1012 34.5 L 1009.5 35 L 1009.5 34 Z " /><path fill="rgb(76,152,200)" stroke="rgb(76,152,200)" stroke-width="1" opacity="0.14901960784313725" d="M 1033.5 34 L 1034 61.5 L 1032 62.5 L 1033 61.5 L 1033.5 34 Z " /><path fill="rgb(76,152,200)" stroke="rgb(76,152,200)" stroke-width="1" opacity="0.14901960784313725" d="M 1052.5 34 L 1053 68.5 L 1052 68.5 L 1052.5 34 Z " /><path fill="rgb(76,152,200)" stroke="rgb(76,152,200)" stroke-width="1" opacity="0.14901960784313725" d="M 1081.5 34 L 1082 36.5 L 1081 36.5 L 1081.5 34 Z " /><path fill="rgb(76,152,200)" stroke="rgb(76,152,200)" stroke-width="1" opacity="0.14901960784313725" d="M 1217.5 34 L 1218.5 36 L 1217.5 34 Z " /><path fill="rgb(76,152,200)" stroke="rgb(76,152,200)" stroke-width="1" opacity="0.14901960784313725" d="M 49.5 36 L 48.5 38 L 49.5 36 Z " /><path fill="rgb(76,152,200)" stroke="rgb(76,152,200)" stroke-width="1" opacity="0.14901960784313725" d="M 180.5 37 L 181.5 39 L 180.5 37 Z " /><path fill="rgb(76,152,200)" stroke="rgb(76,152,200)" stroke-width="1" opacity="0.14901960784313725" d="M 380.5 37 L 379.5 39 L 380.5 37 Z " /><path fill="rgb(76,152,200)" stroke="rgb(76,152,200)" stroke-width="1" opacity="0.14901960784313725" d="M 46.5 38 L 45.5 40 L 46.5 38 Z " /><path fill="rgb(76,152,200)" stroke="rgb(76,152,200)" stroke-width="1" opacity="0.14901960784313725" d="M 581.5 38 L 583 38.5 L 579.5 40 L 579.5 39 L 581.5 38 Z " /><path fill="rgb(76,152,200)" stroke="rgb(76,152,200)" stroke-width="1" opacity="0.14901960784313725" d="M 633.5 38 L 642 42.5 L 640.5 42 L 633.5 39 L 633.5 38 Z " /><path fill="rgb(76,152,200)" stroke="rgb(76,152,200)" stroke-width="1" opacity="0.14901960784313725" d="M 675.5 38 L 675 39.5 L 674.5 42 L 674 39.5 L 675.5 38 Z " /><path fill="rgb(76,152,200)" stroke="rgb(76,152,200)" stroke-width="1" opacity="0.14901960784313725" d="M 707.5 38 L 711 40.5 L 708.5 39 L 707.5 38 Z " /><path fill="rgb(76,152,200)" stroke="rgb(76,152,200)" stroke-width="1" opacity="0.14901960784313725" d="M 773.5 38 L 775 38.5 L 772.5 40 L 773.5 38 Z " /><path fill="rgb(76,152,200)" stroke="rgb(76,152,200)" stroke-width="1" opacity="0.14901960784313725" d="M 805.5 38 L 807 41.5 L 806 41.5 L 805.5 38 Z " /><path fill="rgb(76,152,200)" stroke="rgb(76,152,200)" stroke-width="1" opacity="0.14901960784313725" d="M 337.5 39 L 338.5 41 L 337.5 39 Z " /><path fill="rgb(76,152,200)" stroke="rgb(76,152,200)" stroke-width="1" opacity="0.14901960784313725" d="M 900.5 39 L 907 42.5 L 905.5 42 L 900.5 40 L 900.5 39 Z " /><path fill="rgb(76,152,200)" stroke="rgb(76,152,200)" stroke-width="1" opacity="0.14901960784313725" d="M 184.5 40 L 186.5 43 L 184.5 40 Z " /><path fill="rgb(76,152,200)" stroke="rgb(76,152,200)" stroke-width="1" opacity="0.14901960784313725" d="M 376.5 40 L 374.5 43 L 376.5 40 Z " /><path fill="rgb(76,152,200)" stroke="rgb(76,152,200)" stroke-width="1" opacity="0.14901960784313725" d="M 989.5 41 L 988.5 43 L 986.5 44 L 987.5 42 L 989.5 41 Z " /><path fill="rgb(76,152,200)" stroke="rgb(76,152,200)" stroke-width="1" opacity="0.14901960784313725" d="M 573.5 42 L 572.5 44 L 573.5 42 Z " /><path fill="rgb(76,152,200)" stroke="rgb(76,152,200)" stroke-width="1" opacity="0.14901960784313725" d="M 838.5 42 L 837.5 44 L 838.5 42 Z " /><path fill="rgb(76,152,200)" stroke="rgb(76,152,200)" stroke-width="1" opacity="0.14901960784313725" d="M 41.5 43 L 39.5 46 L 41.5 43 Z " /><path fill="rgb(76,152,200)" stroke="rgb(76,152,200)" stroke-width="1" opacity="0.14901960784313725" d="M 187.5 44 L 188.5 46 L 187.5 44 Z " /><path fill="rgb(76,152,200)" stroke="rgb(76,152,200)" stroke-width="1" opacity="0.14901960784313725" d="M 373.5 44 L 372.5 46 L 373.5 44 Z " /><path fill="rgb(76,152,200)" stroke="rgb(76,152,200)" stroke-width="1" opacity="0.14901960784313725" d="M 570.5 44 L 569.5 46 L 566.5 48 L 568.5 45 L 570.5 44 Z " /><path fill="rgb(76,152,200)" stroke="rgb(76,152,200)" stroke-width="1" opacity="0.14901960784313725" d="M 645.5 44 L 647.5 47 L 645.5 44 Z " /><path fill="rgb(76,152,200)" stroke="rgb(76,152,200)" stroke-width="1" opacity="0.14901960784313725" d="M 712.5 44 L 715 49.5 L 714 49.5 L 712.5 44 Z " /><path fill="rgb(76,152,200)" stroke="rgb(76,152,200)" stroke-width="1" opacity="0.14901960784313725" d="M 835.5 44 L 834.5 46 L 831.5 48 L 833.5 45 L 835.5 44 Z " /><path fill="rgb(76,152,200)" stroke="rgb(76,152,200)" stroke-width="1" opacity="0.14901960784313725" d="M 910.5 44 L 912.5 47 L 910.5 44 Z " /><path fill="rgb(76,152,200)" stroke="rgb(76,152,200)" stroke-width="1" opacity="0.14901960784313725" d="M 984.5 44 L 982.5 47 L 984.5 44 Z " /><path fill="rgb(76,152,200)" stroke="rgb(76,152,200)" stroke-width="1" opacity="0.14901960784313725" d="M 769.5 45 L 770 46.5 L 767.5 51 L 767 49.5 L 769.5 45 Z " /><path fill="rgb(76,152,200)" stroke="rgb(76,152,200)" stroke-width="1" opacity="0.14901960784313725" d="M 344.5 46 L 345.5 48 L 344.5 46 Z " /><path fill="rgb(76,152,200)" stroke="rgb(76,152,200)" stroke-width="1" opacity="0.14901960784313725" d="M 649.5 47 L 653.5 52 L 649.5 47 Z " /><path fill="rgb(76,152,200)" stroke="rgb(76,152,200)" stroke-width="1" opacity="0.14901960784313725" d="M 803.5 47 L 804 48.5 L 801.5 53 L 801 51.5 L 803.5 47 Z " /><path fill="rgb(76,152,200)" stroke="rgb(76,152,200)" stroke-width="1" opacity="0.14901960784313725" d="M 914.5 47 L 918.5 52 L 914.5 47 Z " /><path fill="rgb(76,152,200)" stroke="rgb(76,152,200)" stroke-width="1" opacity="0.14901960784313725" d="M 980.5 47 L 976.5 52 L 980.5 47 Z " /><path fill="rgb(76,152,200)" stroke="rgb(76,152,200)" stroke-width="1" opacity="0.14901960784313725" d="M 829.5 48 L 821.5 57 L 829.5 48 Z " /><path fill="rgb(76,152,200)" stroke="rgb(76,152,200)" stroke-width="1" opacity="0.14901960784313725" d="M 563.5 49 L 556.5 57 L 563.5 49 Z " /><path fill="rgb(76,152,200)" stroke="rgb(76,152,200)" stroke-width="1" opacity="0.14901960784313725" d="M 921.5 54 L 925.5 59 L 921.5 54 Z " /><path fill="rgb(76,152,200)" stroke="rgb(76,152,200)" stroke-width="1" opacity="0.14901960784313725" d="M 657.5 55 L 660.5 59 L 657.5 55 Z " /><path fill="rgb(76,152,200)" stroke="rgb(76,152,200)" stroke-width="1" opacity="0.14901960784313725" d="M 972.5 55 L 968.5 60 L 972.5 55 Z " /><path fill="rgb(76,152,200)" stroke="rgb(76,152,200)" stroke-width="1" opacity="0.14901960784313725" d="M 682.5 57 L 685 62.5 L 684 62.5 L 682.5 57 Z " /><path fill="rgb(76,152,200)" stroke="rgb(76,152,200)" stroke-width="1" opacity="0.14901960784313725" d="M 555.5 58 L 553.5 61 L 555.5 58 Z " /><path fill="rgb(76,152,200)" stroke="rgb(76,152,200)" stroke-width="1" opacity="0.14901960784313725" d="M 820.5 58 L 818.5 61 L 820.5 58 Z " /><path fill="rgb(76,152,200)" stroke="rgb(76,152,200)" stroke-width="1" opacity="0.14901960784313725" d="M 349.5 59 L 350 61.5 L 349 61.5 L 349.5 59 Z " /><path fill="rgb(76,152,200)" stroke="rgb(76,152,200)" stroke-width="1" opacity="0.14901960784313725" d="M 719.5 59 L 721 62.5 L 720 62.5 L 719.5 59 Z " /><path fill="rgb(76,152,200)" stroke="rgb(76,152,200)" stroke-width="1" opacity="0.14901960784313725" d="M 661.5 60 L 662.5 62 L 661.5 60 Z " /><path fill="rgb(76,152,200)" stroke="rgb(76,152,200)" stroke-width="1" opacity="0.14901960784313725" d="M 762.5 60 L 763 61.5 L 761.5 64 L 761 62.5 L 762.5 60 Z " /><path fill="rgb(76,152,200)" stroke="rgb(76,152,200)" stroke-width="1" opacity="0.14901960784313725" d="M 926.5 60 L 927.5 62 L 926.5 60 Z " /><path fill="rgb(76,152,200)" stroke="rgb(76,152,200)" stroke-width="1" opacity="0.14901960784313725" d="M 967.5 61 L 966.5 63 L 967.5 61 Z " /><path fill="rgb(76,152,200)" stroke="rgb(76,152,200)" stroke-width="1" opacity="0.14901960784313725" d="M 552.5 62 L 551.5 64 L 552.5 62 Z " /><path fill="rgb(76,152,200)" stroke="rgb(76,152,200)" stroke-width="1" opacity="0.14901960784313725" d="M 817.5 62 L 816.5 64 L 817.5 62 Z " /><path fill="rgb(76,152,200)" stroke="rgb(76,152,200)" stroke-width="1" opacity="0.14901960784313725" d="M 613.5 63 L 616 63.5 L 613.5 64 L 613.5 63 Z " /><path fill="rgb(76,152,200)" stroke="rgb(76,152,200)" stroke-width="1" opacity="0.14901960784313725" d="M 663.5 63 L 664.5 65 L 663.5 63 Z " /><path fill="rgb(76,152,200)" stroke="rgb(76,152,200)" stroke-width="1" opacity="0.14901960784313725" d="M 878.5 63 L 881 63.5 L 878.5 64 L 878.5 63 Z " /><path fill="rgb(76,152,200)" stroke="rgb(76,152,200)" stroke-width="1" opacity="0.14901960784313725" d="M 928.5 63 L 929.5 65 L 928.5 63 Z " /><path fill="rgb(76,152,200)" stroke="rgb(76,152,200)" stroke-width="1" opacity="0.14901960784313725" d="M 1015.5 63 L 1019 63.5 L 1015.5 64 L 1015.5 63 Z " /><path fill="rgb(76,152,200)" stroke="rgb(76,152,200)" stroke-width="1" opacity="0.14901960784313725" d="M 965.5 64 L 964.5 66 L 965.5 64 Z " /><path fill="rgb(76,152,200)" stroke="rgb(76,152,200)" stroke-width="1" opacity="0.14901960784313725" d="M 550.5 65 L 550 66.5 L 548.5 69 L 549 67.5 L 550.5 65 Z " /><path fill="rgb(76,152,200)" stroke="rgb(76,152,200)" stroke-width="1" opacity="0.14901960784313725" d="M 815.5 65 L 815 66.5 L 813.5 69 L 814 67.5 L 815.5 65 Z " /><path fill="rgb(76,152,200)" stroke="rgb(76,152,200)" stroke-width="1" opacity="0.14901960784313725" d="M 404.5 66 L 405 131.5 L 404 131.5 L 404.5 66 Z " /><path fill="rgb(76,152,200)" stroke="rgb(76,152,200)" stroke-width="1" opacity="0.14901960784313725" d="M 794.5 66 L 795 67.5 L 792.5 72 L 792 70.5 L 794.5 66 Z " /><path fill="rgb(76,152,200)" stroke="rgb(76,152,200)" stroke-width="1" opacity="0.14901960784313725" d="M 157.5 67 L 158 165.5 L 157 165.5 L 157.5 67 Z " /><path fill="rgb(76,152,200)" stroke="rgb(76,152,200)" stroke-width="1" opacity="0.14901960784313725" d="M 250 67 L 310 67.5 L 251 68 L 250.5 130 L 250 67 Z " /><path fill="rgb(76,152,200)" stroke="rgb(76,152,200)" stroke-width="1" opacity="0.14901960784313725" d="M 589.5 67 L 588.5 69 L 589.5 67 Z " /><path fill="rgb(76,152,200)" stroke="rgb(76,152,200)" stroke-width="1" opacity="0.14901960784313725" d="M 854.5 67 L 853.5 69 L 850.5 71 L 852.5 68 L 854.5 67 Z " /><path fill="rgb(76,152,200)" stroke="rgb(76,152,200)" stroke-width="1" opacity="0.14901960784313725" d="M 627.5 68 L 628.5 70 L 627.5 68 Z " /><path fill="rgb(76,152,200)" stroke="rgb(76,152,200)" stroke-width="1" opacity="0.14901960784313725" d="M 892.5 68 L 893.5 70 L 892.5 68 Z " /><path fill="rgb(76,152,200)" stroke="rgb(76,152,200)" stroke-width="1" opacity="0.14901960784313725" d="M 1002.5 68 L 1001.5 70 L 1002.5 68 Z " /><path fill="rgb(76,152,200)" stroke="rgb(76,152,200)" stroke-width="1" opacity="0.14901960784313725" d="M 586.5 69 L 585.5 71 L 586.5 69 Z " /><path fill="rgb(76,152,200)" stroke="rgb(76,152,200)" stroke-width="1" opacity="0.14901960784313725" d="M 630.5 70 L 637 76.5 L 635.5 78 L 634 77.5 L 636 76.5 L 630.5 70 Z " /><path fill="rgb(76,152,200)" stroke="rgb(76,152,200)" stroke-width="1" opacity="0.14901960784313725" d="M 895.5 70 L 902 76.5 L 900.5 78 L 899 77.5 L 901 76.5 L 895.5 70 Z " /><path fill="rgb(76,152,200)" stroke="rgb(76,152,200)" stroke-width="1" opacity="0.14901960784313725" d="M 999.5 70 L 992.5 78 L 999.5 70 Z " /><path fill="rgb(76,152,200)" stroke="rgb(76,152,200)" stroke-width="1" opacity="0.14901960784313725" d="M 583.5 71 L 578.5 77 L 583.5 71 Z " /><path fill="rgb(76,152,200)" stroke="rgb(76,152,200)" stroke-width="1" opacity="0.14901960784313725" d="M 848.5 71 L 843.5 77 L 848.5 71 Z " /><path fill="rgb(76,152,200)" stroke="rgb(76,152,200)" stroke-width="1" opacity="0.14901960784313725" d="M 1053.5 72 L 1054 74.5 L 1053 74.5 L 1053.5 72 Z " /><path fill="rgb(76,152,200)" stroke="rgb(76,152,200)" stroke-width="1" opacity="0.14901960784313725" d="M 1135.5 72 L 1136 73.5 L 1133.5 77 L 1134 75.5 L 1135.5 72 Z " /><path fill="rgb(76,152,200)" stroke="rgb(76,152,200)" stroke-width="1" opacity="0.14901960784313725" d="M 726.5 74 L 728 77.5 L 727 77.5 L 726.5 74 Z " /><path fill="rgb(76,152,200)" stroke="rgb(76,152,200)" stroke-width="1" opacity="0.14901960784313725" d="M 755.5 75 L 756 76.5 L 754.5 79 L 754 77.5 L 755.5 75 Z " /><path fill="rgb(76,152,200)" stroke="rgb(76,152,200)" stroke-width="1" opacity="0.14901960784313725" d="M 1086.5 77 L 1088.5 80 L 1086.5 77 Z " /><path fill="rgb(76,152,200)" stroke="rgb(76,152,200)" stroke-width="1" opacity="0.14901960784313725" d="M 577.5 78 L 576.5 80 L 577.5 78 Z " /><path fill="rgb(76,152,200)" stroke="rgb(76,152,200)" stroke-width="1" opacity="0.14901960784313725" d="M 842.5 78 L 841.5 80 L 842.5 78 Z " /><path fill="rgb(76,152,200)" stroke="rgb(76,152,200)" stroke-width="1" opacity="0.14901960784313725" d="M 1132.5 78 L 1126.5 85 L 1132.5 78 Z " /><path fill="rgb(76,152,200)" stroke="rgb(76,152,200)" stroke-width="1" opacity="0.14901960784313725" d="M 345.5 79 L 343.5 82 L 345.5 79 Z " /><path fill="rgb(76,152,200)" stroke="rgb(76,152,200)" stroke-width="1" opacity="0.14901960784313725" d="M 991.5 79 L 990.5 81 L 991.5 79 Z " /><path fill="rgb(76,152,200)" stroke="rgb(76,152,200)" stroke-width="1" opacity="0.14901960784313725" d="M 575.5 81 L 575 82.5 L 573.5 86 L 573 84.5 L 575.5 81 Z " /><path fill="rgb(76,152,200)" stroke="rgb(76,152,200)" stroke-width="1" opacity="0.14901960784313725" d="M 840.5 81 L 840 82.5 L 838.5 86 L 838 84.5 L 840.5 81 Z " /><path fill="rgb(76,152,200)" stroke="rgb(76,152,200)" stroke-width="1" opacity="0.14901960784313725" d="M 1092.5 83 L 1094.5 86 L 1092.5 83 Z " /><path fill="rgb(76,152,200)" stroke="rgb(76,152,200)" stroke-width="1" opacity="0.14901960784313725" d="M 340.5 84 L 338.5 87 L 340.5 84 Z " /><path fill="rgb(76,152,200)" stroke="rgb(76,152,200)" stroke-width="1" opacity="0.14901960784313725" d="M 695.5 84 L 699 91.5 L 698 91.5 L 695.5 84 Z " /><path fill="rgb(76,152,200)" stroke="rgb(76,152,200)" stroke-width="1" opacity="0.14901960784313725" d="M 1124.5 85 L 1123.5 87 L 1124.5 85 Z " /><path fill="rgb(76,152,200)" stroke="rgb(76,152,200)" stroke-width="1" opacity="0.14901960784313725" d="M 336.5 87 L 335.5 89 L 336.5 87 Z " /><path fill="rgb(76,152,200)" stroke="rgb(76,152,200)" stroke-width="1" opacity="0.14901960784313725" d="M 732.5 87 L 734 90.5 L 733 90.5 L 732.5 87 Z " /><path fill="rgb(76,152,200)" stroke="rgb(76,152,200)" stroke-width="1" opacity="0.14901960784313725" d="M 784.5 87 L 785 88.5 L 781.5 95 L 781 93.5 L 784.5 87 Z " /><path fill="rgb(76,152,200)" stroke="rgb(76,152,200)" stroke-width="1" opacity="0.14901960784313725" d="M 541.5 88 L 542 90.5 L 541 90.5 L 541.5 88 Z " /><path fill="rgb(76,152,200)" stroke="rgb(76,152,200)" stroke-width="1" opacity="0.14901960784313725" d="M 673.5 88 L 674 93.5 L 673 93.5 L 673.5 88 Z " /><path fill="rgb(76,152,200)" stroke="rgb(76,152,200)" stroke-width="1" opacity="0.14901960784313725" d="M 749.5 88 L 750 89.5 L 747.5 94 L 747 92.5 L 749.5 88 Z " /><path fill="rgb(76,152,200)" stroke="rgb(76,152,200)" stroke-width="1" opacity="0.14901960784313725" d="M 806.5 88 L 807 90.5 L 806 90.5 L 806.5 88 Z " /><path fill="rgb(76,152,200)" stroke="rgb(76,152,200)" stroke-width="1" opacity="0.14901960784313725" d="M 938.5 89 L 939 93.5 L 938 93.5 L 938.5 89 Z " /><path fill="rgb(76,152,200)" stroke="rgb(76,152,200)" stroke-width="1" opacity="0.14901960784313725" d="M 1059.5 89 L 1060.5 91 L 1059.5 89 Z " /><path fill="rgb(76,152,200)" stroke="rgb(76,152,200)" stroke-width="1" opacity="0.14901960784313725" d="M 1104.5 89 L 1109 89.5 L 1104.5 90 L 1104.5 89 Z " /><path fill="rgb(76,152,200)" stroke="rgb(76,152,200)" stroke-width="1" opacity="0.14901960784313725" d="M 1111.5 89 L 1115 89.5 L 1111.5 90 L 1111.5 89 Z " /><path fill="rgb(76,152,200)" stroke="rgb(76,152,200)" stroke-width="1" opacity="0.14901960784313725" d="M 1061.5 92 L 1062.5 94 L 1061.5 92 Z " /><path fill="rgb(76,152,200)" stroke="rgb(76,152,200)" stroke-width="1" opacity="0.14901960784313725" d="M 322.5 93 L 321.5 95 L 320 94.5 L 322.5 93 Z " /><path fill="rgb(76,152,200)" stroke="rgb(76,152,200)" stroke-width="1" opacity="0.14901960784313725" d="M 955.5 93 L 956 164.5 L 955 164.5 L 955.5 93 Z " /><path fill="rgb(76,152,200)" stroke="rgb(76,152,200)" stroke-width="1" opacity="0.14901960784313725" d="M 985.5 93 L 986 95.5 L 985 95.5 L 985.5 93 Z " /><path fill="rgb(76,152,200)" stroke="rgb(76,152,200)" stroke-width="1" opacity="0.14901960784313725" d="M 570.5 94 L 571 97.5 L 570 97.5 L 570.5 94 Z " /><path fill="rgb(76,152,200)" stroke="rgb(76,152,200)" stroke-width="1" opacity="0.14901960784313725" d="M 835.5 94 L 836 97.5 L 835 97.5 L 835.5 94 Z " /><path fill="rgb(76,152,200)" stroke="rgb(76,152,200)" stroke-width="1" opacity="0.14901960784313725" d="M 1063.5 95 L 1073.5 106 L 1063.5 95 Z " /><path fill="rgb(76,152,200)" stroke="rgb(76,152,200)" stroke-width="1" opacity="0.14901960784313725" d="M 738.5 100 L 741.5 105 L 742.5 103 L 743 104.5 L 741.5 107 L 738 101.5 L 738.5 100 Z " /><path fill="rgb(76,152,200)" stroke="rgb(76,152,200)" stroke-width="1" opacity="0.14901960784313725" d="M 342.5 101 L 343.5 103 L 342.5 101 Z " /><path fill="rgb(76,152,200)" stroke="rgb(76,152,200)" stroke-width="1" opacity="0.14901960784313725" d="M 346.5 104 L 350.5 109 L 346.5 104 Z " /><path fill="rgb(76,152,200)" stroke="rgb(76,152,200)" stroke-width="1" opacity="0.14901960784313725" d="M 1075.5 106 L 1080 109.5 L 1078.5 109 L 1075.5 106 Z " /><path fill="rgb(76,152,200)" stroke="rgb(76,152,200)" stroke-width="1" opacity="0.14901960784313725" d="M 541.5 108 L 542 110.5 L 541 110.5 L 541.5 108 Z " /><path fill="rgb(76,152,200)" stroke="rgb(76,152,200)" stroke-width="1" opacity="0.14901960784313725" d="M 774.5 108 L 775 109.5 L 772.5 114 L 772 112.5 L 774.5 108 Z " /><path fill="rgb(76,152,200)" stroke="rgb(76,152,200)" stroke-width="1" opacity="0.14901960784313725" d="M 806.5 108 L 807 110.5 L 806 110.5 L 806.5 108 Z " /><path fill="rgb(76,152,200)" stroke="rgb(76,152,200)" stroke-width="1" opacity="0.14901960784313725" d="M 1136.5 109 L 1135.5 111 L 1136.5 109 Z " /><path fill="rgb(76,152,200)" stroke="rgb(76,152,200)" stroke-width="1" opacity="0.14901960784313725" d="M 352.5 111 L 353.5 113 L 352.5 111 Z " /><path fill="rgb(76,152,200)" stroke="rgb(76,152,200)" stroke-width="1" opacity="0.14901960784313725" d="M 708.5 111 L 711 116.5 L 710 116.5 L 708.5 111 Z " /><path fill="rgb(76,152,200)" stroke="rgb(76,152,200)" stroke-width="1" opacity="0.14901960784313725" d="M 1097.5 116 L 1100 116.5 L 1097.5 117 L 1097.5 116 Z " /><path fill="rgb(76,152,200)" stroke="rgb(76,152,200)" stroke-width="1" opacity="0.14901960784313725" d="M 1119.5 116 L 1122 116.5 L 1119.5 117 L 1119.5 116 Z " /><path fill="rgb(76,152,200)" stroke="rgb(76,152,200)" stroke-width="1" opacity="0.14901960784313725" d="M 1137.5 116 L 1138 120.5 L 1137 120.5 L 1137.5 116 Z " /><path fill="rgb(76,152,200)" stroke="rgb(76,152,200)" stroke-width="1" opacity="0.14901960784313725" d="M 1105.5 117 L 1114 117.5 L 1105.5 118 L 1105.5 117 Z " /><path fill="rgb(76,152,200)" stroke="rgb(76,152,200)" stroke-width="1" opacity="0.14901960784313725" d="M 640.5 121 L 642.5 121 L 650 128.5 L 642.5 122 L 640.5 122 L 632.5 130 L 640.5 121 Z " /><path fill="rgb(76,152,200)" stroke="rgb(76,152,200)" stroke-width="1" opacity="0.14901960784313725" d="M 905.5 121 L 907.5 121 L 915 128.5 L 907.5 122 L 905.5 122 L 897.5 130 L 905.5 121 Z " /><path fill="rgb(76,152,200)" stroke="rgb(76,152,200)" stroke-width="1" opacity="0.14901960784313725" d="M 579 122 L 581 122.5 L 580 123.5 L 584.5 129 L 579 122 Z " /><path fill="rgb(76,152,200)" stroke="rgb(76,152,200)" stroke-width="1" opacity="0.14901960784313725" d="M 844 122 L 846 122.5 L 845 123.5 L 849.5 129 L 844 122 Z " /><path fill="rgb(76,152,200)" stroke="rgb(76,152,200)" stroke-width="1" opacity="0.14901960784313725" d="M 357.5 124 L 358 126.5 L 357 126.5 L 357.5 124 Z " /><path fill="rgb(76,152,200)" stroke="rgb(76,152,200)" stroke-width="1" opacity="0.14901960784313725" d="M 630.5 130 L 629.5 132 L 630.5 130 Z " /><path fill="rgb(76,152,200)" stroke="rgb(76,152,200)" stroke-width="1" opacity="0.14901960784313725" d="M 852.5 130 L 853.5 132 L 852.5 130 Z " /><path fill="rgb(76,152,200)" stroke="rgb(76,152,200)" stroke-width="1" opacity="0.14901960784313725" d="M 895.5 130 L 894.5 132 L 895.5 130 Z " /><path fill="rgb(76,152,200)" stroke="rgb(76,152,200)" stroke-width="1" opacity="0.14901960784313725" d="M 1133.5 132 L 1132.5 134 L 1133.5 132 Z " /><path fill="rgb(76,152,200)" stroke="rgb(76,152,200)" stroke-width="1" opacity="0.14901960784313725" d="M 357.5 133 L 358 135.5 L 357 135.5 L 357.5 133 Z " /><path fill="rgb(76,152,200)" stroke="rgb(76,152,200)" stroke-width="1" opacity="0.14901960784313725" d="M 550.5 135 L 551.5 137 L 550.5 135 Z " /><path fill="rgb(76,152,200)" stroke="rgb(76,152,200)" stroke-width="1" opacity="0.14901960784313725" d="M 655.5 135 L 659.5 140 L 655.5 135 Z " /><path fill="rgb(76,152,200)" stroke="rgb(76,152,200)" stroke-width="1" opacity="0.14901960784313725" d="M 815.5 135 L 816.5 137 L 815.5 135 Z " /><path fill="rgb(76,152,200)" stroke="rgb(76,152,200)" stroke-width="1" opacity="0.14901960784313725" d="M 920.5 135 L 924.5 140 L 920.5 135 Z " /><path fill="rgb(76,152,200)" stroke="rgb(76,152,200)" stroke-width="1" opacity="0.14901960784313725" d="M 1131.5 135 L 1130.5 137 L 1131.5 135 Z " /><path fill="rgb(76,152,200)" stroke="rgb(76,152,200)" stroke-width="1" opacity="0.14901960784313725" d="M 552.5 138 L 553.5 140 L 552.5 138 Z " /><path fill="rgb(76,152,200)" stroke="rgb(76,152,200)" stroke-width="1" opacity="0.14901960784313725" d="M 817.5 138 L 818.5 140 L 817.5 138 Z " /><path fill="rgb(76,152,200)" stroke="rgb(76,152,200)" stroke-width="1" opacity="0.14901960784313725" d="M 1127.5 140 L 1126.5 142 L 1127.5 140 Z " /><path fill="rgb(76,152,200)" stroke="rgb(76,152,200)" stroke-width="1" opacity="0.14901960784313725" d="M 554.5 141 L 557.5 145 L 554.5 141 Z " /><path fill="rgb(76,152,200)" stroke="rgb(76,152,200)" stroke-width="1" opacity="0.14901960784313725" d="M 819.5 141 L 821.5 144 L 819.5 141 Z " /><path fill="rgb(76,152,200)" stroke="rgb(76,152,200)" stroke-width="1" opacity="0.14901960784313725" d="M 659.5 142 L 650.5 152 L 659.5 142 Z " /><path fill="rgb(76,152,200)" stroke="rgb(76,152,200)" stroke-width="1" opacity="0.14901960784313725" d="M 923.5 143 L 915.5 152 L 923.5 143 Z " /><path fill="rgb(76,152,200)" stroke="rgb(76,152,200)" stroke-width="1" opacity="0.14901960784313725" d="M 1122.5 144 L 1121.5 146 L 1122.5 144 Z " /><path fill="rgb(76,152,200)" stroke="rgb(76,152,200)" stroke-width="1" opacity="0.14901960784313725" d="M 352.5 148 L 351.5 150 L 352.5 148 Z " /><path fill="rgb(76,152,200)" stroke="rgb(76,152,200)" stroke-width="1" opacity="0.14901960784313725" d="M 1249.5 148 L 1247.5 151 L 1249.5 148 Z " /><path fill="rgb(76,152,200)" stroke="rgb(76,152,200)" stroke-width="1" opacity="0.14901960784313725" d="M 562.5 149 L 565.5 153 L 562.5 149 Z " /><path fill="rgb(76,152,200)" stroke="rgb(76,152,200)" stroke-width="1" opacity="0.14901960784313725" d="M 828.5 150 L 830.5 153 L 828.5 150 Z " /><path fill="rgb(76,152,200)" stroke="rgb(76,152,200)" stroke-width="1" opacity="0.14901960784313725" d="M 371.5 151 L 372.5 153 L 371.5 151 Z " /><path fill="rgb(76,152,200)" stroke="rgb(76,152,200)" stroke-width="1" opacity="0.14901960784313725" d="M 1103.5 151 L 1106 151.5 L 1103.5 152 L 1103.5 151 Z " /><path fill="rgb(76,152,200)" stroke="rgb(76,152,200)" stroke-width="1" opacity="0.14901960784313725" d="M 1156.5 152 L 1155.5 154 L 1156.5 152 Z " /><path fill="rgb(76,152,200)" stroke="rgb(76,152,200)" stroke-width="1" opacity="0.14901960784313725" d="M 647.5 153 L 646.5 155 L 647.5 153 Z " /><path fill="rgb(76,152,200)" stroke="rgb(76,152,200)" stroke-width="1" opacity="0.14901960784313725" d="M 912.5 153 L 911.5 155 L 912.5 153 Z " /><path fill="rgb(76,152,200)" stroke="rgb(76,152,200)" stroke-width="1" opacity="0.14901960784313725" d="M 1242.5 153 L 1241.5 155 L 1242.5 153 Z " /><path fill="rgb(76,152,200)" stroke="rgb(76,152,200)" stroke-width="1" opacity="0.14901960784313725" d="M 373.5 154 L 377.5 159 L 373.5 154 Z " /><path fill="rgb(76,152,200)" stroke="rgb(76,152,200)" stroke-width="1" opacity="0.14901960784313725" d="M 345.5 155 L 344.5 157 L 345.5 155 Z " /><path fill="rgb(76,152,200)" stroke="rgb(76,152,200)" stroke-width="1" opacity="0.14901960784313725" d="M 644.5 155 L 643.5 157 L 644.5 155 Z " /><path fill="rgb(76,152,200)" stroke="rgb(76,152,200)" stroke-width="1" opacity="0.14901960784313725" d="M 909.5 155 L 908.5 157 L 909.5 155 Z " /><path fill="rgb(76,152,200)" stroke="rgb(76,152,200)" stroke-width="1" opacity="0.14901960784313725" d="M 1239.5 155 L 1238.5 157 L 1239.5 155 Z " /><path fill="rgb(76,152,200)" stroke="rgb(76,152,200)" stroke-width="1" opacity="0.14901960784313725" d="M 1153.5 156 L 1143.5 167 L 1153.5 156 Z " /><path fill="rgb(76,152,200)" stroke="rgb(76,152,200)" stroke-width="1" opacity="0.14901960784313725" d="M 342.5 157 L 341.5 159 L 342.5 157 Z " /><path fill="rgb(76,152,200)" stroke="rgb(76,152,200)" stroke-width="1" opacity="0.14901960784313725" d="M 1236.5 157 L 1235.5 159 L 1236.5 157 Z " /><path fill="rgb(76,152,200)" stroke="rgb(76,152,200)" stroke-width="1" opacity="0.14901960784313725" d="M 379.5 159 L 380.5 161 L 379.5 159 Z " /><path fill="rgb(76,152,200)" stroke="rgb(76,152,200)" stroke-width="1" opacity="0.14901960784313725" d="M 1233.5 159 L 1232.5 161 L 1233.5 159 Z " /><path fill="rgb(76,152,200)" stroke="rgb(76,152,200)" stroke-width="1" opacity="0.14901960784313725" d="M 313.5 165 L 317 165.5 L 313.5 166 L 313.5 165 Z " /><path fill="rgb(76,152,200)" stroke="rgb(76,152,200)" stroke-width="1" opacity="0.14901960784313725" d="M 396.5 165 L 399 165.5 L 396.5 166 L 396.5 165 Z " /><path fill="rgb(76,152,200)" stroke="rgb(76,152,200)" stroke-width="1" opacity="0.14901960784313725" d="M 735.5 165 L 747 165.5 L 735.5 166 L 735.5 165 Z " /><path fill="rgb(76,152,200)" stroke="rgb(76,152,200)" stroke-width="1" opacity="0.14901960784313725" d="M 599.5 166 L 602 166.5 L 599.5 167 L 599.5 166 Z " /><path fill="rgb(76,152,200)" stroke="rgb(76,152,200)" stroke-width="1" opacity="0.14901960784313725" d="M 611.5 166 L 614 166.5 L 611.5 167 L 611.5 166 Z " /><path fill="rgb(76,152,200)" stroke="rgb(76,152,200)" stroke-width="1" opacity="0.14901960784313725" d="M 864.5 166 L 867 166.5 L 864.5 167 L 864.5 166 Z " /><path fill="rgb(76,152,200)" stroke="rgb(76,152,200)" stroke-width="1" opacity="0.14901960784313725" d="M 876.5 166 L 879 166.5 L 876.5 167 L 876.5 166 Z " /><path fill="rgb(76,152,200)" stroke="rgb(76,152,200)" stroke-width="1" opacity="0.14901960784313725" d="M 957.5 166 L 984 166.5 L 957.5 167 L 957.5 166 Z " /><path fill="rgb(76,152,200)" stroke="rgb(76,152,200)" stroke-width="1" opacity="0.14901960784313725" d="M 1140.5 168 L 1139.5 170 L 1140.5 168 Z " /><path fill="rgb(11,107,242)" stroke="rgb(11,107,242)" stroke-width="1" opacity="0.9686274509803922" d="M 1219.5 94 L 1220 97 L 1250 97 L 1250 147.5 L 1245.5 152 L 1225.5 165 L 1220.5 166 L 1219 164.5 L 1219.5 94 Z " /><path fill="rgb(11,107,242)" stroke="rgb(11,107,242)" stroke-width="1" opacity="0.9686274509803922" d="M 806.5 105 L 807 108 L 890 108.5 L 844 122 L 849.5 129 Q 859.5 139 881.5 137 L 894.5 132 L 905.5 122 L 907.5 122 L 925 141.5 Q 914.6 155.1 897.5 162 L 883.5 166 L 867.5 167 L 866.5 166 L 855.5 165 L 844.5 161 Q 831.2 154.8 822 144.5 Q 808.3 129.7 806.5 105 Z " /><path fill="rgb(11,107,242)" stroke="rgb(11,107,242)" stroke-width="1" opacity="0.9686274509803922" d="M 541.5 106 L 542 108 L 625 108.5 L 579 122 L 584.5 129 L 597.5 136 Q 605 138.5 616.5 137 L 629.5 132 L 640.5 122 L 642.5 122 L 660 141.5 Q 649.6 155.1 632.5 162 L 618.5 166 L 602.5 167 L 601.5 166 L 590.5 165 L 579.5 161 Q 566.8 155.2 558 145.5 Q 543.7 130.8 541.5 106 Z " /><path fill="rgb(11,107,242)" stroke="rgb(11,107,242)" stroke-width="1" opacity="0.9686274509803922" d="M 984.5 106 L 985 166 L 956 166 L 956 108 L 983.5 108 L 984.5 106 Z " /><path fill="rgb(11,107,242)" stroke="rgb(11,107,242)" stroke-width="1" opacity="0.9686274509803922" d="M 707.5 108 L 708.5 109 L 774 109.5 L 748 165 L 734.5 165 L 734 163.5 Q 718.9 136.6 707.5 108 Z " /><path fill="rgb(11,107,242)" stroke="rgb(11,107,242)" stroke-width="1" opacity="0.9686274509803922" d="M 1100.5 116 L 1119 116.5 L 1100.5 117 L 1100.5 116 Z " /><path fill="rgb(11,107,242)" stroke="rgb(11,107,242)" stroke-width="1" opacity="0.9686274509803922" d="M 1138 116 L 1167 116 L 1167 125.5 Q 1161.6 154.1 1141.5 168 L 1128.5 176 L 1116.5 180 Q 1111.8 178.7 1110.5 181 L 1090.5 181 L 1089 179.5 L 1089 153.5 L 1090.5 152 L 1105.5 152 L 1110.5 151 Q 1121.3 147.8 1128 140.5 Q 1137.3 132.1 1138 116 Z " /></svg>