<svg width="1303" height="341" version="1.1" xmlns="http://www.w3.org/2000/svg" desc="Created with imagetracer.js version 1.2.6" ><path fill="rgb(0,0,0)" stroke="rgb(0,0,0)" stroke-width="1" opacity="0" d="M 0 0 L 1302.5 0 L 1303 0.5 L 1303 341 L 0.5 341 L 0 340.5 L 0 0 Z M 87 78 L 73 82 L 65 87 Q 54 95 51 111 L 51 259 L 103 259 L 103 128 L 131 128 L 131 129 L 131 259 L 184 259 L 184 128 L 212 128 L 212 129 L 212 259 L 264 259 L 264 111 Q 262 100 257 94 L 245 83 L 229 78 L 87 78 Z M 291 78 L 291 259 L 419 259 L 420 258 L 435 258 L 456 253 L 472 244 Q 479 238 483 230 L 486 221 L 486 212 L 487 211 Q 485 207 486 200 L 484 193 L 477 181 Q 469 172 458 167 L 444 163 L 432 162 Q 450 160 462 151 L 470 143 L 474 135 L 476 126 Q 477 106 468 96 Q 461 86 449 82 L 432 78 L 291 78 Z M 536 78 L 525 81 L 516 86 Q 503 94 500 113 L 500 225 L 504 238 L 508 244 Q 518 255 536 258 L 547 258 L 548 259 L 676 259 L 676 209 L 554 209 L 554 128 L 675 128 L 675 78 L 536 78 Z M 720 78 L 720 259 L 755 259 L 755 259 L 755 109 L 797 109 L 804 112 L 808 117 L 812 128 Q 814 144 808 152 Q 804 157 797 160 L 766 160 L 766 191 L 810 191 Q 821 189 829 184 Q 839 176 844 164 L 848 145 L 848 126 L 847 125 L 846 113 Q 844 100 837 93 Q 828 81 811 78 L 720 78 Z M 862 78 L 862 244 L 865 251 L 871 256 L 875 258 Q 880 257 882 259 L 973 259 L 973 225 L 898 225 L 898 79 L 898 78 L 862 78 Z M 985 78 L 985 216 Q 987 230 995 240 Q 1002 249 1014 255 L 1027 260 L 1037 262 Q 1076 266 1097 250 L 1109 237 L 1115 223 L 1117 212 L 1117 79 L 1117 78 L 1080 78 L 1080 208 L 1076 219 Q 1071 226 1060 228 Q 1039 231 1030 222 L 1023 213 L 1021 205 L 1021 79 L 1021 78 L 985 78 Z M 1167 78 Q 1156 80 1149 85 Q 1140 92 1135 102 L 1131 114 L 1130 127 L 1129 128 L 1130 144 L 1132 153 L 1141 171 Q 1150 181 1166 185 Q 1172 183 1174 186 L 1221 186 L 1227 189 Q 1231 194 1233 202 Q 1234 213 1229 219 Q 1225 224 1218 225 L 1135 225 L 1135 259 L 1221 259 L 1222 258 L 1232 258 L 1240 256 L 1250 251 Q 1258 245 1263 236 L 1269 217 Q 1272 183 1258 167 Q 1249 155 1232 151 L 1222 151 L 1221 150 L 1176 150 L 1174 149 Q 1167 145 1165 138 Q 1163 123 1169 117 Q 1173 112 1180 111 L 1258 111 L 1258 78 L 1167 78 Z " /><path fill="rgb(0,0,0)" stroke="rgb(0,0,0)" stroke-width="1" opacity="0" d="M 344 128 L 419 128 L 419 208 L 344 208 L 344 128 Z " /><path fill="rgb(58,70,80)" stroke="rgb(58,70,80)" stroke-width="1" opacity="0.592156862745098" d="M 86.5 78 L 93 78.5 L 86.5 79 L 86.5 78 Z " /><path fill="rgb(58,70,80)" stroke="rgb(58,70,80)" stroke-width="1" opacity="0.592156862745098" d="M 222.5 78 L 229 78.5 L 222.5 79 L 222.5 78 Z " /><path fill="rgb(58,70,80)" stroke="rgb(58,70,80)" stroke-width="1" opacity="0.592156862745098" d="M 291.5 78 L 292 258 L 419 258.5 L 291 259 L 291.5 78 Z " /><path fill="rgb(58,70,80)" stroke="rgb(58,70,80)" stroke-width="1" opacity="0.592156862745098" d="M 423.5 78 L 432 78.5 L 423.5 79 L 423.5 78 Z " /><path fill="rgb(58,70,80)" stroke="rgb(58,70,80)" stroke-width="1" opacity="0.592156862745098" d="M 535.5 78 L 542 78.5 L 535.5 79 L 535.5 78 Z " /><path fill="rgb(58,70,80)" stroke="rgb(58,70,80)" stroke-width="1" opacity="0.592156862745098" d="M 674.5 78 L 675 128 L 554 128 L 554 208.5 L 553 208.5 L 553 127 L 674 127 L 674.5 78 Z " /><path fill="rgb(58,70,80)" stroke="rgb(58,70,80)" stroke-width="1" opacity="0.592156862745098" d="M 804.5 78 L 811 78.5 L 804.5 79 L 804.5 78 Z " /><path fill="rgb(58,70,80)" stroke="rgb(58,70,80)" stroke-width="1" opacity="0.592156862745098" d="M 862.5 78 L 863 243.5 L 862 243.5 L 862.5 78 Z " /><path fill="rgb(58,70,80)" stroke="rgb(58,70,80)" stroke-width="1" opacity="0.592156862745098" d="M 897.5 78 L 898 224.5 L 897 224.5 L 897.5 78 Z " /><path fill="rgb(58,70,80)" stroke="rgb(58,70,80)" stroke-width="1" opacity="0.592156862745098" d="M 1080.5 78 L 1081 206.5 L 1080 206.5 L 1080.5 78 Z " /><path fill="rgb(58,70,80)" stroke="rgb(58,70,80)" stroke-width="1" opacity="0.592156862745098" d="M 1116.5 78 L 1117 211.5 L 1116 211.5 L 1116.5 78 Z " /><path fill="rgb(58,70,80)" stroke="rgb(58,70,80)" stroke-width="1" opacity="0.592156862745098" d="M 1166.5 78 L 1173 78.5 L 1166.5 79 L 1166.5 78 Z " /><path fill="rgb(58,70,80)" stroke="rgb(58,70,80)" stroke-width="1" opacity="0.592156862745098" d="M 1257.5 78 L 1258 110.5 L 1257 110.5 L 1257.5 78 Z " /><path fill="rgb(58,70,80)" stroke="rgb(58,70,80)" stroke-width="1" opacity="0.592156862745098" d="M 81.5 79 L 85 79.5 L 78.5 81 L 78.5 80 L 81.5 79 Z " /><path fill="rgb(58,70,80)" stroke="rgb(58,70,80)" stroke-width="1" opacity="0.592156862745098" d="M 230.5 79 L 237 80.5 L 234.5 81 L 230.5 80 L 230.5 79 Z " /><path fill="rgb(58,70,80)" stroke="rgb(58,70,80)" stroke-width="1" opacity="0.592156862745098" d="M 433.5 79 L 438 79.5 L 433.5 80 L 433.5 79 Z " /><path fill="rgb(58,70,80)" stroke="rgb(58,70,80)" stroke-width="1" opacity="0.592156862745098" d="M 531.5 79 L 534 79.5 L 531.5 80 L 531.5 79 Z " /><path fill="rgb(58,70,80)" stroke="rgb(58,70,80)" stroke-width="1" opacity="0.592156862745098" d="M 812.5 79 L 816 79.5 L 812.5 80 L 812.5 79 Z " /><path fill="rgb(58,70,80)" stroke="rgb(58,70,80)" stroke-width="1" opacity="0.592156862745098" d="M 1161.5 79 L 1165 79.5 L 1156.5 82 L 1156.5 81 L 1161.5 79 Z " /><path fill="rgb(58,70,80)" stroke="rgb(58,70,80)" stroke-width="1" opacity="0.592156862745098" d="M 439.5 80 L 442 80.5 L 439.5 81 L 439.5 80 Z " /><path fill="rgb(58,70,80)" stroke="rgb(58,70,80)" stroke-width="1" opacity="0.592156862745098" d="M 527.5 80 L 530 80.5 Q 515.5 84 508 94.5 L 503.5 103 L 503 101.5 Q 507.3 91.8 515.5 86 L 527.5 80 Z " /><path fill="rgb(58,70,80)" stroke="rgb(58,70,80)" stroke-width="1" opacity="0.592156862745098" d="M 75.5 81 L 77 81.5 Q 65.4 84.9 59 93.5 L 54.5 102 L 54 100.5 Q 57.6 92.1 64.5 87 L 75.5 81 Z " /><path fill="rgb(58,70,80)" stroke="rgb(58,70,80)" stroke-width="1" opacity="0.592156862745098" d="M 238.5 81 Q 250.3 84.7 257 93.5 L 261 101.5 L 260 101.5 Q 257.2 92.8 250.5 88 L 238.5 82 L 238.5 81 Z " /><path fill="rgb(58,70,80)" stroke="rgb(58,70,80)" stroke-width="1" opacity="0.592156862745098" d="M 443.5 81 Q 459.4 84.6 468 95.5 L 472 102.5 L 471 102.5 L 462.5 91 L 448.5 83 L 443.5 82 L 443.5 81 Z " /><path fill="rgb(58,70,80)" stroke="rgb(58,70,80)" stroke-width="1" opacity="0.592156862745098" d="M 820.5 81 Q 831.1 84.4 837 92.5 Q 843.3 99.2 845 110.5 L 844 110.5 Q 841 95 830.5 87 L 820.5 82 L 820.5 81 Z " /><path fill="rgb(58,70,80)" stroke="rgb(58,70,80)" stroke-width="1" opacity="0.592156862745098" d="M 1153.5 82 L 1155 82.5 Q 1146.4 86.4 1141 93.5 L 1135.5 103 L 1135 101.5 Q 1140 91.5 1148.5 85 L 1153.5 82 Z " /><path fill="rgb(58,70,80)" stroke="rgb(58,70,80)" stroke-width="1" opacity="0.592156862745098" d="M 53.5 103 L 54 104.5 L 52.5 109 L 52 105.5 L 53.5 103 Z " /><path fill="rgb(58,70,80)" stroke="rgb(58,70,80)" stroke-width="1" opacity="0.592156862745098" d="M 261.5 103 L 263 108.5 L 262 108.5 L 261.5 103 Z " /><path fill="rgb(58,70,80)" stroke="rgb(58,70,80)" stroke-width="1" opacity="0.592156862745098" d="M 472.5 104 L 474 108.5 L 473 108.5 L 472.5 104 Z " /><path fill="rgb(58,70,80)" stroke="rgb(58,70,80)" stroke-width="1" opacity="0.592156862745098" d="M 1134.5 104 L 1135 105.5 L 1132.5 112 L 1132 109.5 L 1134.5 104 Z " /><path fill="rgb(58,70,80)" stroke="rgb(58,70,80)" stroke-width="1" opacity="0.592156862745098" d="M 501.5 107 L 502 110.5 L 501 110.5 L 501.5 107 Z " /><path fill="rgb(58,70,80)" stroke="rgb(58,70,80)" stroke-width="1" opacity="0.592156862745098" d="M 755.5 108 L 796 108.5 L 755.5 109 L 755.5 108 Z " /><path fill="rgb(58,70,80)" stroke="rgb(58,70,80)" stroke-width="1" opacity="0.592156862745098" d="M 797.5 109 Q 805.6 110.4 809 116.5 L 812 126.5 L 811 126.5 Q 810.2 116.3 803.5 112 L 797.5 110 L 797.5 109 Z " /><path fill="rgb(58,70,80)" stroke="rgb(58,70,80)" stroke-width="1" opacity="0.592156862745098" d="M 51.5 110 L 52 114.5 L 51 114.5 L 51.5 110 Z " /><path fill="rgb(58,70,80)" stroke="rgb(58,70,80)" stroke-width="1" opacity="0.592156862745098" d="M 263.5 110 L 264 114.5 L 263 114.5 L 263.5 110 Z " /><path fill="rgb(58,70,80)" stroke="rgb(58,70,80)" stroke-width="1" opacity="0.592156862745098" d="M 474.5 110 L 475 113.5 L 474 113.5 L 474.5 110 Z " /><path fill="rgb(58,70,80)" stroke="rgb(58,70,80)" stroke-width="1" opacity="0.592156862745098" d="M 1175.5 111 L 1179 111.5 Q 1171.9 111.9 1169 116.5 L 1165 124.5 L 1164.5 137 L 1164 124.5 Q 1166.1 117.1 1171.5 113 L 1175.5 111 Z " /><path fill="rgb(58,70,80)" stroke="rgb(58,70,80)" stroke-width="1" opacity="0.592156862745098" d="M 500.5 112 L 501 224.5 L 500 224.5 L 500.5 112 Z " /><path fill="rgb(58,70,80)" stroke="rgb(58,70,80)" stroke-width="1" opacity="0.592156862745098" d="M 845.5 112 L 846 115.5 L 845 115.5 L 845.5 112 Z " /><path fill="rgb(58,70,80)" stroke="rgb(58,70,80)" stroke-width="1" opacity="0.592156862745098" d="M 1131.5 113 L 1132 116.5 L 1131 116.5 L 1131.5 113 Z " /><path fill="rgb(58,70,80)" stroke="rgb(58,70,80)" stroke-width="1" opacity="0.592156862745098" d="M 475.5 115 L 476 125.5 L 475 125.5 L 475.5 115 Z " /><path fill="rgb(58,70,80)" stroke="rgb(58,70,80)" stroke-width="1" opacity="0.592156862745098" d="M 846.5 117 L 847 122.5 L 846 122.5 L 846.5 117 Z " /><path fill="rgb(58,70,80)" stroke="rgb(58,70,80)" stroke-width="1" opacity="0.592156862745098" d="M 1130.5 118 L 1131 123.5 L 1130 123.5 L 1130.5 118 Z " /><path fill="rgb(58,70,80)" stroke="rgb(58,70,80)" stroke-width="1" opacity="0.592156862745098" d="M 847.5 125 L 848 144.5 L 847 144.5 L 847.5 125 Z " /><path fill="rgb(58,70,80)" stroke="rgb(58,70,80)" stroke-width="1" opacity="0.592156862745098" d="M 103.5 127 L 130.5 127 L 132 128.5 L 132 258 L 183 258 L 183 128.5 L 184.5 127 L 211.5 127 L 213 128.5 L 213 258 L 263.5 258 L 263.5 259 L 212 259 L 212 128.5 L 211.5 128 L 184 128 L 184 259 L 131 259 L 131 128.5 L 130.5 128 L 103 128 L 103 259 L 51.5 259 L 51.5 258 L 102 258 L 102 128.5 L 103.5 127 Z " /><path fill="rgb(58,70,80)" stroke="rgb(58,70,80)" stroke-width="1" opacity="0.592156862745098" d="M 344.5 127 L 420 127 L 420 209 L 343 209 L 343 128.5 L 344.5 127 Z M 344 128 L 344 208 L 419 208 L 419 128 L 344 128 Z " /><path fill="rgb(58,70,80)" stroke="rgb(58,70,80)" stroke-width="1" opacity="0.592156862745098" d="M 1129.5 127 L 1130 133.5 L 1129 133.5 L 1129.5 127 Z " /><path fill="rgb(58,70,80)" stroke="rgb(58,70,80)" stroke-width="1" opacity="0.592156862745098" d="M 474.5 128 L 475 131.5 Q 471.3 144.3 461.5 151 L 452.5 156 L 452.5 155 Q 462.2 151.2 468 143.5 Q 473.1 137.6 474.5 128 Z " /><path fill="rgb(58,70,80)" stroke="rgb(58,70,80)" stroke-width="1" opacity="0.592156862745098" d="M 812.5 128 L 813 140.5 L 812 140.5 L 812.5 128 Z " /><path fill="rgb(58,70,80)" stroke="rgb(58,70,80)" stroke-width="1" opacity="0.592156862745098" d="M 1130.5 138 L 1131 143.5 L 1130 143.5 L 1130.5 138 Z " /><path fill="rgb(58,70,80)" stroke="rgb(58,70,80)" stroke-width="1" opacity="0.592156862745098" d="M 811.5 142 L 812 144.5 L 811 144.5 L 811.5 142 Z " /><path fill="rgb(58,70,80)" stroke="rgb(58,70,80)" stroke-width="1" opacity="0.592156862745098" d="M 1167.5 143 L 1175 149.5 L 1173.5 150 L 1168 145.5 L 1167.5 143 Z " /><path fill="rgb(58,70,80)" stroke="rgb(58,70,80)" stroke-width="1" opacity="0.592156862745098" d="M 1131.5 145 L 1132 148.5 L 1131 148.5 L 1131.5 145 Z " /><path fill="rgb(58,70,80)" stroke="rgb(58,70,80)" stroke-width="1" opacity="0.592156862745098" d="M 810.5 146 L 811 147.5 L 802.5 158 L 797.5 160 L 797.5 159 Q 804.7 157.2 808 151.5 L 810.5 146 Z " /><path fill="rgb(58,70,80)" stroke="rgb(58,70,80)" stroke-width="1" opacity="0.592156862745098" d="M 846.5 147 L 847 152.5 L 846 152.5 L 846.5 147 Z " /><path fill="rgb(58,70,80)" stroke="rgb(58,70,80)" stroke-width="1" opacity="0.592156862745098" d="M 1132.5 150 Q 1136.1 165.9 1146.5 175 L 1155 180.5 L 1153.5 180 Q 1145.4 177.1 1141 170.5 Q 1133.3 162.4 1132.5 150 Z " /><path fill="rgb(58,70,80)" stroke="rgb(58,70,80)" stroke-width="1" opacity="0.592156862745098" d="M 1176.5 150 L 1221 150.5 L 1176.5 151 L 1176.5 150 Z " /><path fill="rgb(58,70,80)" stroke="rgb(58,70,80)" stroke-width="1" opacity="0.592156862745098" d="M 1226.5 151 L 1231.5 151 L 1241.5 154 Q 1251.6 158.4 1258 166.5 Q 1264.9 174.1 1267 186.5 L 1266 186.5 Q 1262.8 170.8 1252.5 162 L 1241.5 155 L 1231.5 152 L 1226.5 152 L 1226.5 151 Z " /><path fill="rgb(58,70,80)" stroke="rgb(58,70,80)" stroke-width="1" opacity="0.592156862745098" d="M 845.5 154 L 846 156.5 L 845 156.5 L 845.5 154 Z " /><path fill="rgb(58,70,80)" stroke="rgb(58,70,80)" stroke-width="1" opacity="0.592156862745098" d="M 449.5 156 L 451 156.5 L 443.5 159 L 443.5 158 L 449.5 156 Z " /><path fill="rgb(58,70,80)" stroke="rgb(58,70,80)" stroke-width="1" opacity="0.592156862745098" d="M 844.5 158 L 845 160.5 Q 840.1 175.6 828.5 184 L 819.5 188 L 819.5 187 Q 831.1 183.6 837 174.5 L 844.5 158 Z " /><path fill="rgb(58,70,80)" stroke="rgb(58,70,80)" stroke-width="1" opacity="0.592156862745098" d="M 439.5 159 L 442 159.5 L 439.5 160 L 439.5 159 Z " /><path fill="rgb(58,70,80)" stroke="rgb(58,70,80)" stroke-width="1" opacity="0.592156862745098" d="M 434.5 160 L 438 160.5 L 434.5 161 L 434.5 160 Z " /><path fill="rgb(58,70,80)" stroke="rgb(58,70,80)" stroke-width="1" opacity="0.592156862745098" d="M 766 160 L 796 160.5 L 767 161 L 766.5 191 L 766 160 Z " /><path fill="rgb(58,70,80)" stroke="rgb(58,70,80)" stroke-width="1" opacity="0.592156862745098" d="M 422.5 161 Q 431.5 160 437 162.5 L 429.5 163 Q 428 160.5 422.5 162 L 422.5 161 Z " /><path fill="rgb(58,70,80)" stroke="rgb(58,70,80)" stroke-width="1" opacity="0.592156862745098" d="M 439.5 163 L 448 164.5 L 444.5 165 L 439.5 164 L 439.5 163 Z " /><path fill="rgb(58,70,80)" stroke="rgb(58,70,80)" stroke-width="1" opacity="0.592156862745098" d="M 449.5 165 Q 467.1 168.9 477 180.5 L 484 192.5 L 485 197.5 L 484 197.5 Q 481.2 184.3 472.5 177 Q 464 168.5 449.5 166 L 449.5 165 Z " /><path fill="rgb(58,70,80)" stroke="rgb(58,70,80)" stroke-width="1" opacity="0.592156862745098" d="M 1156.5 181 L 1164 183.5 L 1161.5 184 L 1156.5 182 L 1156.5 181 Z " /><path fill="rgb(58,70,80)" stroke="rgb(58,70,80)" stroke-width="1" opacity="0.592156862745098" d="M 1165.5 184 L 1170 184.5 L 1165.5 185 L 1165.5 184 Z " /><path fill="rgb(58,70,80)" stroke="rgb(58,70,80)" stroke-width="1" opacity="0.592156862745098" d="M 1173.5 185 L 1220.5 185 L 1230 191.5 L 1233 197.5 L 1233 200.5 L 1232 200.5 L 1232 197.5 L 1226.5 189 L 1220.5 186 L 1173.5 186 L 1173.5 185 Z " /><path fill="rgb(58,70,80)" stroke="rgb(58,70,80)" stroke-width="1" opacity="0.592156862745098" d="M 1267.5 188 L 1268 191.5 L 1267 191.5 L 1267.5 188 Z " /><path fill="rgb(58,70,80)" stroke="rgb(58,70,80)" stroke-width="1" opacity="0.592156862745098" d="M 811.5 189 L 815 189.5 L 811.5 190 L 811.5 189 Z " /><path fill="rgb(58,70,80)" stroke="rgb(58,70,80)" stroke-width="1" opacity="0.592156862745098" d="M 800.5 190 L 810 190.5 L 800.5 191 L 800.5 190 Z " /><path fill="rgb(58,70,80)" stroke="rgb(58,70,80)" stroke-width="1" opacity="0.592156862745098" d="M 1268.5 193 L 1269 199.5 L 1268 199.5 L 1268.5 193 Z " /><path fill="rgb(58,70,80)" stroke="rgb(58,70,80)" stroke-width="1" opacity="0.592156862745098" d="M 485.5 199 L 486 204.5 L 485 204.5 L 485.5 199 Z " /><path fill="rgb(58,70,80)" stroke="rgb(58,70,80)" stroke-width="1" opacity="0.592156862745098" d="M 1233.5 202 L 1234 208.5 L 1233 208.5 L 1233.5 202 Z " /><path fill="rgb(58,70,80)" stroke="rgb(58,70,80)" stroke-width="1" opacity="0.592156862745098" d="M 1021.5 205 Q 1022.5 216.5 1029.5 222 L 1038 226.5 L 1036.5 227 L 1026 219.5 L 1021 209.5 L 1021.5 205 Z " /><path fill="rgb(58,70,80)" stroke="rgb(58,70,80)" stroke-width="1" opacity="0.592156862745098" d="M 1079.5 208 L 1080 211.5 L 1079 211.5 L 1079.5 208 Z " /><path fill="rgb(58,70,80)" stroke="rgb(58,70,80)" stroke-width="1" opacity="0.592156862745098" d="M 675.5 209 L 676 259 L 547 258.5 L 675 258 L 675.5 209 Z " /><path fill="rgb(58,70,80)" stroke="rgb(58,70,80)" stroke-width="1" opacity="0.592156862745098" d="M 985.5 209 L 986 215.5 L 985 215.5 L 985.5 209 Z " /><path fill="rgb(58,70,80)" stroke="rgb(58,70,80)" stroke-width="1" opacity="0.592156862745098" d="M 1232.5 210 L 1233 212.5 L 1232 212.5 L 1232.5 210 Z " /><path fill="rgb(58,70,80)" stroke="rgb(58,70,80)" stroke-width="1" opacity="0.592156862745098" d="M 1268.5 211 L 1269 216.5 L 1268 216.5 L 1268.5 211 Z " /><path fill="rgb(58,70,80)" stroke="rgb(58,70,80)" stroke-width="1" opacity="0.592156862745098" d="M 1078.5 213 L 1079 214.5 L 1071.5 224 L 1067.5 226 L 1067.5 225 L 1076 218.5 L 1078.5 213 Z " /><path fill="rgb(58,70,80)" stroke="rgb(58,70,80)" stroke-width="1" opacity="0.592156862745098" d="M 1115.5 213 L 1116 218.5 Q 1111.4 239.4 1096.5 250 L 1089.5 254 L 1090.5 252 Q 1099.5 248 1105 240.5 Q 1113.8 230.3 1115.5 213 Z " /><path fill="rgb(58,70,80)" stroke="rgb(58,70,80)" stroke-width="1" opacity="0.592156862745098" d="M 1231.5 214 L 1232 215.5 L 1225.5 223 L 1218.5 225 L 1218.5 224 Q 1226 223.5 1229 218.5 L 1231.5 214 Z " /><path fill="rgb(58,70,80)" stroke="rgb(58,70,80)" stroke-width="1" opacity="0.592156862745098" d="M 485.5 215 L 486 220.5 L 484.5 224 L 484 221.5 L 485.5 215 Z " /><path fill="rgb(58,70,80)" stroke="rgb(58,70,80)" stroke-width="1" opacity="0.592156862745098" d="M 986.5 217 L 988 223.5 L 987 223.5 L 986.5 217 Z " /><path fill="rgb(58,70,80)" stroke="rgb(58,70,80)" stroke-width="1" opacity="0.592156862745098" d="M 1267.5 218 L 1268 221.5 L 1267 221.5 L 1267.5 218 Z " /><path fill="rgb(58,70,80)" stroke="rgb(58,70,80)" stroke-width="1" opacity="0.592156862745098" d="M 1266.5 223 L 1267 225.5 L 1264.5 231 L 1264 229.5 L 1266.5 223 Z " /><path fill="rgb(58,70,80)" stroke="rgb(58,70,80)" stroke-width="1" opacity="0.592156862745098" d="M 988.5 225 Q 993.4 239.6 1004.5 248 L 1017 255.5 L 1015.5 256 Q 1002.9 250.1 995 239.5 L 989 229.5 L 988.5 225 Z " /><path fill="rgb(58,70,80)" stroke="rgb(58,70,80)" stroke-width="1" opacity="0.592156862745098" d="M 1135.5 225 L 1136 258 L 1221 258.5 L 1135 259 L 1135.5 225 Z " /><path fill="rgb(58,70,80)" stroke="rgb(58,70,80)" stroke-width="1" opacity="0.592156862745098" d="M 501.5 226 L 504 234.5 L 503 234.5 Q 500 231.1 501.5 226 Z " /><path fill="rgb(58,70,80)" stroke="rgb(58,70,80)" stroke-width="1" opacity="0.592156862745098" d="M 1064.5 226 L 1066 226.5 L 1060.5 228 L 1060.5 227 L 1064.5 226 Z " /><path fill="rgb(58,70,80)" stroke="rgb(58,70,80)" stroke-width="1" opacity="0.592156862745098" d="M 1039.5 227 L 1042 227.5 L 1039.5 228 L 1039.5 227 Z " /><path fill="rgb(58,70,80)" stroke="rgb(58,70,80)" stroke-width="1" opacity="0.592156862745098" d="M 482.5 228 L 483 229.5 Q 478.8 238.3 471.5 244 L 461.5 250 L 461.5 249 Q 471.1 245.1 477 237.5 L 482.5 228 Z " /><path fill="rgb(58,70,80)" stroke="rgb(58,70,80)" stroke-width="1" opacity="0.592156862745098" d="M 1043.5 228 L 1059 228.5 L 1043.5 229 L 1043.5 228 Z " /><path fill="rgb(58,70,80)" stroke="rgb(58,70,80)" stroke-width="1" opacity="0.592156862745098" d="M 1263.5 232 L 1264 233.5 Q 1258.9 244.4 1249.5 251 L 1245.5 253 L 1246.5 251 Q 1254 248 1258 241.5 L 1263.5 232 Z " /><path fill="rgb(58,70,80)" stroke="rgb(58,70,80)" stroke-width="1" opacity="0.592156862745098" d="M 504.5 236 L 512.5 247 L 519 251.5 L 517.5 251 L 508 243.5 L 504 237.5 L 504.5 236 Z " /><path fill="rgb(58,70,80)" stroke="rgb(58,70,80)" stroke-width="1" opacity="0.592156862745098" d="M 863.5 245 Q 865.4 251.6 870.5 255 L 878 257.5 L 874.5 258 L 865 250.5 L 863.5 245 Z " /><path fill="rgb(58,70,80)" stroke="rgb(58,70,80)" stroke-width="1" opacity="0.592156862745098" d="M 456.5 251 L 458 251.5 L 447.5 255 L 447.5 254 L 456.5 251 Z " /><path fill="rgb(58,70,80)" stroke="rgb(58,70,80)" stroke-width="1" opacity="0.592156862745098" d="M 522.5 253 L 526 254.5 L 524.5 255 L 522.5 253 Z " /><path fill="rgb(58,70,80)" stroke="rgb(58,70,80)" stroke-width="1" opacity="0.592156862745098" d="M 1242.5 253 L 1244 253.5 L 1237.5 256 L 1237.5 255 L 1242.5 253 Z " /><path fill="rgb(58,70,80)" stroke="rgb(58,70,80)" stroke-width="1" opacity="0.592156862745098" d="M 442.5 255 L 446 255.5 L 442.5 256 L 442.5 255 Z " /><path fill="rgb(58,70,80)" stroke="rgb(58,70,80)" stroke-width="1" opacity="0.592156862745098" d="M 527.5 255 L 534 256.5 L 530.5 257 L 527.5 256 L 527.5 255 Z " /><path fill="rgb(58,70,80)" stroke="rgb(58,70,80)" stroke-width="1" opacity="0.592156862745098" d="M 1084.5 255 L 1086 255.5 L 1076.5 259 L 1076.5 258 L 1084.5 255 Z " /><path fill="rgb(58,70,80)" stroke="rgb(58,70,80)" stroke-width="1" opacity="0.592156862745098" d="M 436.5 256 L 441 256.5 L 436.5 257 L 436.5 256 Z " /><path fill="rgb(58,70,80)" stroke="rgb(58,70,80)" stroke-width="1" opacity="0.592156862745098" d="M 1018.5 256 L 1034 260.5 L 1030.5 261 L 1020.5 258 L 1018.5 256 Z " /><path fill="rgb(58,70,80)" stroke="rgb(58,70,80)" stroke-width="1" opacity="0.592156862745098" d="M 1233.5 256 L 1236 256.5 L 1233.5 257 L 1233.5 256 Z " /><path fill="rgb(58,70,80)" stroke="rgb(58,70,80)" stroke-width="1" opacity="0.592156862745098" d="M 426.5 257 L 435 257.5 L 426.5 258 L 426.5 257 Z " /><path fill="rgb(58,70,80)" stroke="rgb(58,70,80)" stroke-width="1" opacity="0.592156862745098" d="M 535.5 257 L 542 257.5 L 535.5 258 L 535.5 257 Z " /><path fill="rgb(58,70,80)" stroke="rgb(58,70,80)" stroke-width="1" opacity="0.592156862745098" d="M 1226.5 257 L 1232 257.5 L 1226.5 258 L 1226.5 257 Z " /><path fill="rgb(58,70,80)" stroke="rgb(58,70,80)" stroke-width="1" opacity="0.592156862745098" d="M 720.5 258 L 755 258.5 L 720.5 259 L 720.5 258 Z " /><path fill="rgb(58,70,80)" stroke="rgb(58,70,80)" stroke-width="1" opacity="0.592156862745098" d="M 881.5 258 L 973 258.5 L 881.5 259 L 881.5 258 Z " /><path fill="rgb(58,70,80)" stroke="rgb(58,70,80)" stroke-width="1" opacity="0.592156862745098" d="M 1072.5 259 L 1075 259.5 L 1072.5 260 L 1072.5 259 Z " /><path fill="rgb(58,70,80)" stroke="rgb(58,70,80)" stroke-width="1" opacity="0.592156862745098" d="M 1066.5 260 L 1071 260.5 L 1066.5 261 L 1066.5 260 Z " /><path fill="rgb(58,70,80)" stroke="rgb(58,70,80)" stroke-width="1" opacity="0.592156862745098" d="M 1036.5 261 L 1043 261.5 L 1036.5 262 L 1036.5 261 Z " /><path fill="rgb(58,70,80)" stroke="rgb(58,70,80)" stroke-width="1" opacity="0.592156862745098" d="M 1057.5 261 L 1065 261.5 L 1057.5 262 L 1057.5 261 Z " /><path fill="rgb(59,71,81)" stroke="rgb(59,71,81)" stroke-width="1" opacity="0.996078431372549" d="M 93.5 78 L 98 78.5 L 93.5 79 L 93.5 78 Z " /><path fill="rgb(59,71,81)" stroke="rgb(59,71,81)" stroke-width="1" opacity="0.996078431372549" d="M 217.5 78 L 222 78.5 L 217.5 79 L 217.5 78 Z " /><path fill="rgb(59,71,81)" stroke="rgb(59,71,81)" stroke-width="1" opacity="0.996078431372549" d="M 418.5 78 L 423 78.5 L 418.5 79 L 418.5 78 Z " /><path fill="rgb(59,71,81)" stroke="rgb(59,71,81)" stroke-width="1" opacity="0.996078431372549" d="M 542.5 78 L 547 78.5 L 542.5 79 L 542.5 78 Z " /><path fill="rgb(59,71,81)" stroke="rgb(59,71,81)" stroke-width="1" opacity="0.996078431372549" d="M 721.5 78 L 804 78.5 L 721 79 L 720.5 258 L 720 79.5 L 721.5 78 Z " /><path fill="rgb(59,71,81)" stroke="rgb(59,71,81)" stroke-width="1" opacity="0.996078431372549" d="M 863.5 78 L 897 78.5 L 863.5 79 L 863.5 78 Z " /><path fill="rgb(59,71,81)" stroke="rgb(59,71,81)" stroke-width="1" opacity="0.996078431372549" d="M 985 78 L 1020.5 78 L 1021 78.5 L 1021 203.5 L 1020 203.5 L 1020 79.5 L 1019.5 79 L 986 79 L 985.5 209 L 985 78 Z " /><path fill="rgb(59,71,81)" stroke="rgb(59,71,81)" stroke-width="1" opacity="0.996078431372549" d="M 1081.5 78 L 1116 78.5 L 1081.5 79 L 1081.5 78 Z " /><path fill="rgb(59,71,81)" stroke="rgb(59,71,81)" stroke-width="1" opacity="0.996078431372549" d="M 1173.5 78 L 1257 78.5 L 1173.5 79 L 1173.5 78 Z " /><path fill="rgb(59,71,81)" stroke="rgb(59,71,81)" stroke-width="1" opacity="0.996078431372549" d="M 515.5 87 L 514.5 89 L 515.5 87 Z " /><path fill="rgb(59,71,81)" stroke="rgb(59,71,81)" stroke-width="1" opacity="0.996078431372549" d="M 830.5 87 L 835.5 93 L 830.5 87 Z " /><path fill="rgb(59,71,81)" stroke="rgb(59,71,81)" stroke-width="1" opacity="0.996078431372549" d="M 1147.5 87 L 1141.5 94 L 1147.5 87 Z " /><path fill="rgb(59,71,81)" stroke="rgb(59,71,81)" stroke-width="1" opacity="0.996078431372549" d="M 64.5 88 L 59.5 94 L 64.5 88 Z " /><path fill="rgb(59,71,81)" stroke="rgb(59,71,81)" stroke-width="1" opacity="0.996078431372549" d="M 250.5 88 L 255.5 94 L 250.5 88 Z " /><path fill="rgb(59,71,81)" stroke="rgb(59,71,81)" stroke-width="1" opacity="0.996078431372549" d="M 462.5 91 L 466.5 96 L 462.5 91 Z " /><path fill="rgb(59,71,81)" stroke="rgb(59,71,81)" stroke-width="1" opacity="0.996078431372549" d="M 509.5 93 L 508.5 95 L 509.5 93 Z " /><path fill="rgb(59,71,81)" stroke="rgb(59,71,81)" stroke-width="1" opacity="0.996078431372549" d="M 754.5 108 L 755 257.5 L 754 257.5 L 754.5 108 Z " /><path fill="rgb(59,71,81)" stroke="rgb(59,71,81)" stroke-width="1" opacity="0.996078431372549" d="M 1180.5 110 L 1257 110.5 L 1180.5 111 L 1180.5 110 Z " /><path fill="rgb(59,71,81)" stroke="rgb(59,71,81)" stroke-width="1" opacity="0.996078431372549" d="M 805.5 112 L 807.5 115 L 805.5 112 Z " /><path fill="rgb(59,71,81)" stroke="rgb(59,71,81)" stroke-width="1" opacity="0.996078431372549" d="M 51.5 115 L 52 117.5 L 51 117.5 L 51.5 115 Z " /><path fill="rgb(59,71,81)" stroke="rgb(59,71,81)" stroke-width="1" opacity="0.996078431372549" d="M 263.5 115 L 264 118.5 L 263 118.5 L 263.5 115 Z " /><path fill="rgb(59,71,81)" stroke="rgb(59,71,81)" stroke-width="1" opacity="0.996078431372549" d="M 1167.5 117 L 1166.5 119 L 1167.5 117 Z " /><path fill="rgb(59,71,81)" stroke="rgb(59,71,81)" stroke-width="1" opacity="0.996078431372549" d="M 1130.5 124 L 1131 126.5 L 1130 126.5 L 1130.5 124 Z " /><path fill="rgb(59,71,81)" stroke="rgb(59,71,81)" stroke-width="1" opacity="0.996078431372549" d="M 1130.5 135 L 1131 137.5 L 1130 137.5 L 1130.5 135 Z " /><path fill="rgb(59,71,81)" stroke="rgb(59,71,81)" stroke-width="1" opacity="0.996078431372549" d="M 467.5 143 L 466.5 145 L 467.5 143 Z " /><path fill="rgb(59,71,81)" stroke="rgb(59,71,81)" stroke-width="1" opacity="0.996078431372549" d="M 463.5 147 L 461.5 150 L 463.5 147 Z " /><path fill="rgb(59,71,81)" stroke="rgb(59,71,81)" stroke-width="1" opacity="0.996078431372549" d="M 1223.5 151 L 1226 151.5 L 1223.5 152 L 1223.5 151 Z " /><path fill="rgb(59,71,81)" stroke="rgb(59,71,81)" stroke-width="1" opacity="0.996078431372549" d="M 808.5 152 L 803.5 158 L 808.5 152 Z " /><path fill="rgb(59,71,81)" stroke="rgb(59,71,81)" stroke-width="1" opacity="0.996078431372549" d="M 425.5 162 L 429 162.5 L 425.5 163 L 425.5 162 Z " /><path fill="rgb(59,71,81)" stroke="rgb(59,71,81)" stroke-width="1" opacity="0.996078431372549" d="M 1252.5 162 L 1255.5 166 L 1252.5 162 Z " /><path fill="rgb(59,71,81)" stroke="rgb(59,71,81)" stroke-width="1" opacity="0.996078431372549" d="M 1143.5 171 L 1146.5 175 L 1143.5 171 Z " /><path fill="rgb(59,71,81)" stroke="rgb(59,71,81)" stroke-width="1" opacity="0.996078431372549" d="M 836.5 174 L 835.5 176 L 836.5 174 Z " /><path fill="rgb(59,71,81)" stroke="rgb(59,71,81)" stroke-width="1" opacity="0.996078431372549" d="M 472.5 177 L 474.5 180 L 472.5 177 Z " /><path fill="rgb(59,71,81)" stroke="rgb(59,71,81)" stroke-width="1" opacity="0.996078431372549" d="M 829.5 181 L 828.5 183 L 829.5 181 Z " /><path fill="rgb(59,71,81)" stroke="rgb(59,71,81)" stroke-width="1" opacity="0.996078431372549" d="M 477.5 183 L 478.5 185 L 477.5 183 Z " /><path fill="rgb(59,71,81)" stroke="rgb(59,71,81)" stroke-width="1" opacity="0.996078431372549" d="M 1170.5 184 L 1173 184.5 L 1170.5 185 L 1170.5 184 Z " /><path fill="rgb(59,71,81)" stroke="rgb(59,71,81)" stroke-width="1" opacity="0.996078431372549" d="M 767.5 190 L 800 190.5 L 767.5 191 L 767.5 190 Z " /><path fill="rgb(59,71,81)" stroke="rgb(59,71,81)" stroke-width="1" opacity="0.996078431372549" d="M 1268.5 200 L 1269 202.5 L 1268 202.5 L 1268.5 200 Z " /><path fill="rgb(59,71,81)" stroke="rgb(59,71,81)" stroke-width="1" opacity="0.996078431372549" d="M 1268.5 208 L 1269 210.5 L 1268 210.5 L 1268.5 208 Z " /><path fill="rgb(59,71,81)" stroke="rgb(59,71,81)" stroke-width="1" opacity="0.996078431372549" d="M 553.5 209 L 675 209.5 L 553.5 210 L 553.5 209 Z " /><path fill="rgb(59,71,81)" stroke="rgb(59,71,81)" stroke-width="1" opacity="0.996078431372549" d="M 1024.5 217 L 1025.5 219 L 1024.5 217 Z " /><path fill="rgb(59,71,81)" stroke="rgb(59,71,81)" stroke-width="1" opacity="0.996078431372549" d="M 1229.5 219 L 1227.5 222 L 1229.5 219 Z " /><path fill="rgb(59,71,81)" stroke="rgb(59,71,81)" stroke-width="1" opacity="0.996078431372549" d="M 1075.5 220 L 1073.5 223 L 1075.5 220 Z " /><path fill="rgb(59,71,81)" stroke="rgb(59,71,81)" stroke-width="1" opacity="0.996078431372549" d="M 1030.5 223 L 1031.5 225 L 1030.5 223 Z " /><path fill="rgb(59,71,81)" stroke="rgb(59,71,81)" stroke-width="1" opacity="0.996078431372549" d="M 897.5 225 L 971.5 225 L 973 226.5 L 972.5 258 L 972 226 L 897.5 226 L 897.5 225 Z " /><path fill="rgb(59,71,81)" stroke="rgb(59,71,81)" stroke-width="1" opacity="0.996078431372549" d="M 1136.5 225 L 1219 225.5 L 1136.5 226 L 1136.5 225 Z " /><path fill="rgb(59,71,81)" stroke="rgb(59,71,81)" stroke-width="1" opacity="0.996078431372549" d="M 1107.5 236 L 1106.5 238 L 1107.5 236 Z " /><path fill="rgb(59,71,81)" stroke="rgb(59,71,81)" stroke-width="1" opacity="0.996078431372549" d="M 476.5 237 L 471.5 243 L 476.5 237 Z " /><path fill="rgb(59,71,81)" stroke="rgb(59,71,81)" stroke-width="1" opacity="0.996078431372549" d="M 996.5 239 L 998.5 242 L 996.5 239 Z " /><path fill="rgb(59,71,81)" stroke="rgb(59,71,81)" stroke-width="1" opacity="0.996078431372549" d="M 1104.5 240 L 1102.5 243 L 1104.5 240 Z " /><path fill="rgb(59,71,81)" stroke="rgb(59,71,81)" stroke-width="1" opacity="0.996078431372549" d="M 1257.5 241 L 1256.5 243 L 1257.5 241 Z " /><path fill="rgb(59,71,81)" stroke="rgb(59,71,81)" stroke-width="1" opacity="0.996078431372549" d="M 468.5 244 L 467.5 246 L 468.5 244 Z " /><path fill="rgb(59,71,81)" stroke="rgb(59,71,81)" stroke-width="1" opacity="0.996078431372549" d="M 510.5 244 L 512.5 247 L 510.5 244 Z " /><path fill="rgb(59,71,81)" stroke="rgb(59,71,81)" stroke-width="1" opacity="0.996078431372549" d="M 1002.5 245 L 1004.5 248 L 1002.5 245 Z " /><path fill="rgb(59,71,81)" stroke="rgb(59,71,81)" stroke-width="1" opacity="0.996078431372549" d="M 1099.5 245 L 1097.5 248 L 1099.5 245 Z " /><path fill="rgb(59,71,81)" stroke="rgb(59,71,81)" stroke-width="1" opacity="0.996078431372549" d="M 1251.5 247 L 1250.5 249 L 1251.5 247 Z " /><path fill="rgb(59,71,81)" stroke="rgb(59,71,81)" stroke-width="1" opacity="0.996078431372549" d="M 1007.5 249 L 1008.5 251 L 1007.5 249 Z " /><path fill="rgb(59,71,81)" stroke="rgb(59,71,81)" stroke-width="1" opacity="0.996078431372549" d="M 1094.5 249 L 1093.5 251 L 1094.5 249 Z " /><path fill="rgb(59,71,81)" stroke="rgb(59,71,81)" stroke-width="1" opacity="0.996078431372549" d="M 421.5 257 L 426 257.5 L 421.5 258 L 421.5 257 Z " /><path fill="rgb(59,71,81)" stroke="rgb(59,71,81)" stroke-width="1" opacity="0.996078431372549" d="M 542.5 257 L 545 257.5 L 542.5 258 L 542.5 257 Z " /><path fill="rgb(59,71,81)" stroke="rgb(59,71,81)" stroke-width="1" opacity="0.996078431372549" d="M 1223.5 257 L 1226 257.5 L 1223.5 258 L 1223.5 257 Z " /><path fill="rgb(59,71,81)" stroke="rgb(59,71,81)" stroke-width="1" opacity="0.996078431372549" d="M 1043.5 261 L 1047 261.5 L 1043.5 262 L 1043.5 261 Z " /><path fill="rgb(59,71,81)" stroke="rgb(59,71,81)" stroke-width="1" opacity="0.996078431372549" d="M 1053.5 261 L 1057 261.5 L 1053.5 262 L 1053.5 261 Z " /><path fill="rgb(59,71,81)" stroke="rgb(59,71,81)" stroke-width="1" opacity="1" d="M 98.5 78 L 216.5 78 L 217.5 79 L 228.5 79 L 245.5 85 L 257 95.5 L 262 106.5 L 263 118.5 L 264 119.5 L 264 258 L 213 258 L 213 127.5 L 212.5 127 L 183 127 L 183 258 L 132 258 L 132 127.5 L 131.5 127 L 102 127 L 102 258 L 51 258 L 51 118.5 L 54 103.5 Q 57.8 92.8 66.5 87 L 78.5 81 L 86.5 79 L 97.5 79 L 98.5 78 Z " /><path fill="rgb(59,71,81)" stroke="rgb(59,71,81)" stroke-width="1" opacity="1" d="M 292 78 L 417.5 78 L 418.5 79 L 430.5 79 L 450.5 84 Q 461.5 88.5 468 97.5 L 474 110.5 L 475 125.5 L 472 136.5 L 464.5 147 Q 449.3 161.7 420 161 L 420 127 L 343 127 L 343 209 L 420 209 L 420 162.5 Q 420 161.5 424.5 162 L 425.5 163 L 442.5 164 L 456.5 168 Q 469.4 172.6 477 182.5 Q 482.7 189.3 485 199.5 L 486 212.5 L 484 223.5 L 480 232.5 L 469.5 244 L 457.5 251 L 434.5 257 L 421.5 257 L 420.5 258 L 292 258 L 292 78 Z " /><path fill="rgb(59,71,81)" stroke="rgb(59,71,81)" stroke-width="1" opacity="1" d="M 547.5 78 L 674 78 L 674 127 L 553 127 L 553 210 L 675 210 L 675 258 L 545.5 258 L 544.5 257 L 531.5 256 L 522.5 253 Q 513.5 249 508 241.5 Q 502.9 234.6 501 224.5 L 501 112.5 Q 503.8 97.3 513.5 89 L 531.5 80 L 546.5 79 L 547.5 78 Z " /><path fill="rgb(59,71,81)" stroke="rgb(59,71,81)" stroke-width="1" opacity="1" d="M 721 79 L 810.5 79 Q 828.5 82 837 94.5 L 845 112.5 L 846 124.5 L 847 125.5 L 847 144.5 L 842 165.5 L 830.5 181 L 820.5 187 L 809.5 190 L 767 190 L 767 161 L 796.5 161 Q 804.9 158.9 809 152.5 Q 814.9 143.9 813 127.5 L 811 119.5 L 805.5 112 L 797.5 108 L 754 108 L 754 257.5 L 753.5 258 L 721 258 L 721 79 Z " /><path fill="rgb(59,71,81)" stroke="rgb(59,71,81)" stroke-width="1" opacity="1" d="M 863 79 L 896.5 79 L 897 79.5 L 897 226 L 972 226 L 972 258 L 880.5 258 L 875.5 257 L 867 251.5 L 863 242.5 L 863 79 Z " /><path fill="rgb(59,71,81)" stroke="rgb(59,71,81)" stroke-width="1" opacity="1" d="M 986 79 L 1019.5 79 L 1020 79.5 L 1020 203.5 Q 1022.5 205 1021 210.5 L 1024 217.5 L 1031.5 225 L 1041.5 229 L 1059.5 229 Q 1070 227 1076 220.5 L 1081 208.5 L 1081 79 L 1115.5 79 L 1116 79.5 L 1116 210.5 L 1113 225.5 Q 1108.5 237 1100.5 245 Q 1090.2 254.7 1074.5 259 L 1064.5 261 L 1047.5 262 L 1046.5 261 L 1031.5 260 L 1018.5 256 Q 1007.2 250.8 999 242.5 L 989 226.5 L 986 215.5 L 986 79 Z " /><path fill="rgb(59,71,81)" stroke="rgb(59,71,81)" stroke-width="1" opacity="1" d="M 1166.5 79 L 1257 79 L 1257 110 L 1180.5 110 L 1172.5 112 L 1166 118.5 Q 1162 125 1164 137.5 Q 1165.8 145.2 1171.5 149 L 1175.5 151 L 1222.5 151 Q 1224.2 153.7 1230.5 152 Q 1248.8 155.8 1258 168.5 Q 1264 177 1267 188.5 L 1269 207.5 L 1268 208.5 L 1267 221.5 L 1264 230.5 Q 1259.8 240.3 1252.5 247 L 1241.5 254 L 1231.5 257 L 1223.5 257 L 1222.5 258 L 1136 258 L 1136 226 L 1218.5 226 Q 1226 224.6 1230 219.5 L 1234 209.5 L 1234 201.5 L 1231 192.5 L 1225.5 187 L 1221.5 185 L 1173.5 185 Q 1171.8 182.3 1165.5 184 Q 1149.3 180.2 1141 168.5 Q 1135 160 1132 148.5 L 1130 127.5 L 1131 126.5 L 1132 113.5 L 1135 104.5 Q 1139.9 92.9 1149.5 86 Q 1156.4 80.9 1166.5 79 Z " /></svg>