<svg xmlns="http://www.w3.org/2000/svg" viewBox="0 0 501.013 150.39"><g fill="#0a7deb"><path d="M499.449 43.768h-8.808a2.909 2.909 0 0 0-2.645 1.692l-11.177 26.912a2.59 2.59 0 0 1-2.383 1.577h-.005a2.588 2.588 0 0 1-2.385-1.577L460.871 45.46a2.917 2.917 0 0 0-2.649-1.692H412.86c-.864 0-1.563.701-1.563 1.565v8.133c0 .864.699 1.565 1.563 1.565h13.94v29.432c0 .862.701 1.564 1.565 1.564h8.125c.864 0 1.563-.702 1.563-1.564V55.03h14.035l10.96 24.116c2.151 4.09 6.441 6.88 11.382 6.88h.007c4.941 0 9.23-2.79 11.377-6.88l15.02-33.086a1.565 1.565 0 0 0-1.384-2.294M105.974 83.06v-.003c0-7.305-4.12-13.641-10.168-16.818L46.91 44.046a2.275 2.275 0 0 0-1.077-.268 2.318 2.318 0 0 0-2.316 2.313v13.012a4.317 4.317 0 0 0 2.504 3.916l39.77 16.516a3.823 3.823 0 0 1 2.334 3.525v.003a3.825 3.825 0 0 1-2.334 3.523l-39.77 16.516a4.314 4.314 0 0 0-2.504 3.915v13.014a2.319 2.319 0 0 0 3.393 2.046l48.896-22.192c6.047-3.178 10.168-9.516 10.168-16.82v-.005z"/><path d="M134.653 83.065c0 37.178-30.142 67.325-67.329 67.325C30.141 150.39 0 120.243 0 83.065c0-37.189 30.14-67.333 67.324-67.333 37.187 0 67.329 30.144 67.329 67.333M67.324 27.28c-31.099 0-56.318 24.974-56.318 55.784 0 30.796 25.22 55.775 56.318 55.775 31.099 0 56.316-24.979 56.316-55.775 0-30.81-25.217-55.784-56.316-55.784m208.326 95.019a2.908 2.908 0 0 1-2.904-2.906V46.73a2.908 2.908 0 0 1 2.904-2.906h16.555a2.904 2.904 0 0 1 2.906 2.906v72.663a2.904 2.904 0 0 1-2.906 2.906H275.65zm-69.231 0h.005c9.172 0 17.141-5.18 21.13-12.777l27.89-61.44a2.906 2.906 0 0 0-2.57-4.259h-16.355a5.41 5.41 0 0 0-4.917 3.145l-20.754 49.97a4.809 4.809 0 0 1-4.426 2.932h-.008a4.805 4.805 0 0 1-4.424-2.932l-20.756-49.97a5.417 5.417 0 0 0-4.917-3.144h-16.356a2.905 2.905 0 0 0-2.572 4.259l27.888 61.439c3.991 7.597 11.96 12.777 21.134 12.777h.008zM297.337 13.41c0 7.404-6.005 13.406-13.41 13.406-7.402 0-13.409-6.002-13.409-13.406 0-7.405 6.007-13.41 13.409-13.41 7.405 0 13.41 6.005 13.41 13.41m59.408 108.889c23.742 0 41.622-14.94 41.622-33.367V46.73a2.906 2.906 0 0 0-2.907-2.906h-16.565a2.903 2.903 0 0 0-2.902 2.906L375.976 85c0 8.24-8.612 14.923-19.231 14.923-10.62 0-19.234-6.682-19.234-14.923l-.014-38.271c0-1.605-1.3-2.906-2.908-2.906h-16.564a2.907 2.907 0 0 0-2.906 2.906v42.202c0 18.426 17.88 33.367 41.626 33.367"/></g></svg>