<svg version="1.1" id="svg2" xml:space="preserve" viewBox="2.242094209039548 372.67664 789.217161581921 370.4316" xmlns="http://www.w3.org/2000/svg" style="max-height: 500px" width="789.217161581921" height="370.4316"><metadata id="metadata8">image/svg+xml</metadata><defs id="defs6"><clipPath clipPathUnits="userSpaceOnUse" id="clipPath20"><path d="M 0,841.89 H 595.276 V 0 H 0 Z" id="path18"/></clipPath></defs><g id="g10" transform="matrix(1.3333333,0,0,-1.3333333,0,1122.52)"><path d="M 0,0 H 595.275 V 841.89 H 0 Z" style="fill:#ffffff;fill-opacity:1;fill-rule:nonzero;stroke:none" id="path12"/><g id="g14"><g id="g16" clip-path="url(#clipPath20)"><g id="g22" transform="translate(375.7432,452.355)"><path d="m 0,0 c 1.267,-1.174 2.359,-2.348 3.611,-3.314 2.672,-2.062 3.092,-4.702 2.709,-7.89 -1.475,-12.311 -4.648,-24.117 -9.989,-35.325 -5.325,-11.177 -12.375,-21.137 -21.091,-29.92 -1.351,-1.362 -3.177,-1.427 -4.375,-0.221 -1.256,1.264 -1.176,3.002 0.255,4.448 7.963,8.046 14.471,17.125 19.433,27.306 4.687,9.62 7.833,19.711 9.304,30.316 0.236,1.7 0.466,3.403 0.604,5.113 0.036,0.44 -0.164,1.025 -0.467,1.345 -1.508,1.597 -3.062,3.153 -4.659,4.662 -0.358,0.338 -0.945,0.585 -1.439,0.605 -1.747,0.073 -3.5,0.028 -5.33,0.028 -0.139,-1.955 -0.23,-3.786 -0.406,-5.608 -1.512,-15.669 -6.659,-30.045 -15.738,-42.901 -3.006,-4.256 -6.609,-8.093 -9.992,-12.076 -1.087,-1.277 -2.495,-1.508 -3.774,-0.861 -1.13,0.571 -1.782,1.78 -1.487,3.115 0.138,0.621 0.504,1.275 0.953,1.731 8.786,8.933 15.381,19.247 19.615,31.047 2.466,6.87 3.979,13.949 4.626,21.23 0.566,6.362 0.415,12.699 -0.502,19.003 -2.666,18.322 -10.47,34.13 -23.386,47.412 -0.538,0.553 -1.056,1.241 -1.278,1.961 -0.403,1.305 0.266,2.627 1.412,3.26 1.155,0.638 2.605,0.485 3.607,-0.65 2.988,-3.378 6.096,-6.677 8.794,-10.278 7.924,-10.576 13.179,-22.414 15.699,-35.383 0.902,-4.65 1.23,-9.413 1.76,-14.131 0.085,-0.762 0.278,-1.114 1.057,-1 0.039,0.006 0.08,0 0.12,10e-4 1.711,0.039 3.615,-0.375 5.079,0.246 1.47,0.622 2.421,2.381 3.752,3.452 1.649,1.328 2.155,2.814 1.881,4.951 -1.492,11.662 -4.622,22.818 -9.787,33.397 -4.987,10.216 -11.527,19.317 -19.501,27.406 -1.375,1.395 -1.447,3.132 -0.241,4.364 1.232,1.257 3.039,1.166 4.453,-0.26 C -13.352,65.116 -4.916,51.801 0.525,36.595 3.69,27.75 5.622,18.642 6.46,9.29 6.622,7.482 6.124,6.003 4.819,4.749 3.27,3.261 1.757,1.734 0,0" style="fill:#000000;fill-opacity:1;fill-rule:nonzero;stroke:none" id="path24"/></g><g id="g26" transform="translate(253.6255,449.5054)"><path d="m 0,0 c 0.386,-3.083 0.615,-5.987 1.133,-8.839 1.534,-8.457 4.585,-16.344 9.21,-23.607 2.519,-3.955 5.432,-7.595 8.688,-10.97 0.532,-0.551 1.011,-1.265 1.225,-1.99 0.355,-1.199 -0.381,-2.557 -1.469,-3.129 -1.129,-0.592 -2.583,-0.444 -3.531,0.594 -2.152,2.357 -4.357,4.688 -6.291,7.219 -8.217,10.757 -13.103,22.88 -14.353,36.379 -2.049,22.124 4.719,41.235 19.88,57.419 0.791,0.844 1.574,1.69 2.905,1.668 C 19.65,54.705 21.062,52.355 19.949,50.4 19.716,49.991 19.383,49.628 19.052,49.287 9.839,39.82 3.851,28.646 1.355,15.658 0.749,12.498 0.422,9.283 -0.065,5.875 c 0.891,0 1.475,0 2.06,0 3.157,0 6.315,0.024 9.471,-0.015 0.82,-0.01 1.073,0.247 1.14,1.073 1.063,13.029 6.126,24.263 15.22,33.665 1.525,1.576 3.487,1.652 4.701,0.233 1.07,-1.252 0.972,-2.889 -0.316,-4.194 -3.878,-3.933 -7.026,-8.375 -9.35,-13.388 -4.129,-8.91 -5.451,-18.22 -3.895,-27.921 1.613,-10.051 6.061,-18.676 13.13,-25.975 1.216,-1.256 1.467,-2.447 0.845,-3.672 -0.926,-1.82 -3.242,-2.207 -4.749,-0.734 -3.276,3.2 -6.037,6.811 -8.351,10.759 -4.229,7.216 -6.617,15.009 -7.285,23.344 -0.027,0.333 -0.461,0.906 -0.712,0.909 C 8.015,0.018 4.185,0 0,0" style="fill:#000000;fill-opacity:1;fill-rule:nonzero;stroke:none" id="path28"/></g><g id="g30" transform="translate(340.1436,449.4263)"><path d="m 0,0 h -12.294 c -0.381,-2.61 -0.636,-5.151 -1.136,-7.644 -2.106,-10.502 -6.991,-19.548 -14.486,-27.187 -1.288,-1.313 -3.094,-1.386 -4.282,-0.25 -1.255,1.2 -1.275,3.039 0.049,4.375 5.44,5.492 9.361,11.907 11.68,19.275 2.766,8.786 2.999,17.661 0.672,26.579 -2.166,8.298 -6.324,15.471 -12.32,21.594 -1.318,1.346 -1.339,3.206 -0.113,4.375 1.203,1.148 2.97,1.082 4.274,-0.232 6.971,-7.022 11.702,-15.326 14,-24.952 0.765,-3.209 1.175,-6.502 1.769,-9.884 H 0.114 c -0.41,3.078 -0.682,6.098 -1.231,9.067 -2.45,13.255 -8.491,24.663 -17.883,34.312 -1.255,1.29 -1.567,2.766 -0.814,3.981 1.068,1.723 3.3,1.945 4.812,0.362 1.736,-1.818 3.447,-3.673 5.023,-5.63 C -1.377,37.456 3.905,25.276 5.375,11.662 7.838,-11.164 1.053,-30.977 -14.872,-47.591 c -1.188,-1.24 -2.528,-1.515 -3.779,-0.87 -1.117,0.575 -1.785,1.812 -1.492,3.119 0.14,0.621 0.508,1.273 0.957,1.731 6.603,6.739 11.648,14.477 14.973,23.311 2.092,5.557 3.443,11.293 3.933,17.221 C -0.198,-2.088 -0.101,-1.1 0,0" style="fill:#000000;fill-opacity:1;fill-rule:nonzero;stroke:none" id="path32"/></g><g id="g34" transform="translate(217.3276,455.3809)"><path d="M 0,0 C 1.822,0 3.455,0.009 5.087,-0.002 7.018,-0.017 8.313,-1.214 8.298,-2.946 8.283,-4.694 7.02,-5.843 5.06,-5.869 3.502,-5.89 1.944,-5.889 0.386,-5.903 0.313,-5.904 0.241,-5.956 -0.046,-6.067 c 0.095,-1.781 0.13,-3.641 0.306,-5.487 0.558,-5.849 1.496,-11.631 2.988,-17.326 4.271,-16.303 12.097,-30.667 23.394,-43.153 1.072,-1.185 2.195,-2.322 3.296,-3.48 1.279,-1.343 1.333,-3.058 0.131,-4.274 -1.2,-1.215 -2.969,-1.199 -4.268,0.097 -8.704,8.683 -15.714,18.574 -21.054,29.646 -4.025,8.347 -6.926,17.072 -8.692,26.165 -1.8,9.258 -2.494,18.603 -1.803,28.018 1.934,26.321 11.949,49.091 30.123,68.253 0.439,0.463 0.878,0.928 1.337,1.372 1.339,1.296 3.209,1.348 4.383,0.134 1.18,-1.22 1.072,-2.884 -0.17,-4.285 C 26.933,66.239 23.793,62.973 21.044,59.408 11.304,46.773 4.835,32.598 1.925,16.899 0.975,11.773 0.622,6.536 0.006,1.348 -0.04,0.961 0,0.565 0,0" style="fill:#000000;fill-opacity:1;fill-rule:nonzero;stroke:none" id="path36"/></g><g id="g38" transform="translate(257.98,517.3828)"><path d="M 0,0 C 1.349,-0.224 2.382,-0.899 2.833,-2.055 3.319,-3.297 2.978,-4.34 2.117,-5.35 c -3.132,-3.672 -6.437,-7.225 -9.268,-11.121 -6.603,-9.089 -10.93,-19.24 -13.385,-30.208 -1.938,-8.654 -2.495,-17.406 -1.629,-26.199 1.742,-17.664 8.345,-33.326 19.882,-46.858 1.346,-1.578 2.799,-3.065 4.22,-4.577 1.374,-1.463 1.497,-3.262 0.277,-4.472 -1.273,-1.262 -3.015,-1.167 -4.45,0.282 -10.506,10.616 -17.967,23.06 -22.306,37.353 -3.259,10.736 -4.549,21.719 -3.634,32.903 1.807,22.093 10.442,41.108 26.024,56.915 C -1.577,-0.748 -0.724,-0.437 0,0" style="fill:#000000;fill-opacity:1;fill-rule:nonzero;stroke:none" id="path40"/></g><g id="g42" transform="translate(296.8828,471.0894)"><path d="M 0,0 C -9.617,-11.61 -8.082,-28.11 0.05,-37.21 8.896,-27.28 9.095,-10.292 0,0 m 12.658,-19.159 c -0.132,-9.074 -3.447,-17.348 -10.071,-24.273 -1.571,-1.642 -3.442,-1.674 -5.024,-0.035 -5.433,5.633 -8.781,12.299 -9.757,20.091 -1.412,11.269 1.825,21.051 9.565,29.335 1.858,1.99 3.566,1.931 5.427,-0.015 6.341,-6.63 9.864,-15.425 9.86,-25.103" style="fill:#000000;fill-opacity:1;fill-rule:nonzero;stroke:none" id="path44"/></g><g id="g46" transform="translate(307.0537,340.9805)"><path d="m 0,0 c -6.779,-0.035 -12.108,-5.45 -12.071,-12.266 0.037,-6.729 5.419,-12.06 12.163,-12.047 6.788,0.011 12.171,5.419 12.143,12.199 C 12.208,-5.34 6.779,0.034 0,0 m 0.071,-29.245 c -9.434,-0.013 -17.075,7.619 -17.085,17.063 -0.01,9.437 7.612,17.096 17.038,17.122 9.461,0.028 17.178,-7.677 17.16,-17.133 -0.019,-9.423 -7.661,-17.038 -17.113,-17.052" style="fill:#000000;fill-opacity:1;fill-rule:nonzero;stroke:none" id="path48"/></g><g id="g50" transform="translate(261.0176,345.4482)"><path d="m 0,0 h 4.675 v -13.154 h 13.857 v 13.151 h 4.734 v -32.984 h -4.714 v 14.956 H 4.686 V -32.998 H 0 Z" style="fill:#000000;fill-opacity:1;fill-rule:nonzero;stroke:none" id="path52"/></g><g id="g54" transform="translate(204.1777,317.1191)"><path d="M 0,0 H 15.1 V -4.675 H -4.821 V 28.369 H 15.038 V 23.72 H -0.017 V 14.501 H 14.72 V 9.717 L 0,9.717 Z" style="fill:#000000;fill-opacity:1;fill-rule:nonzero;stroke:none" id="path56"/></g><g id="g58" transform="translate(360.5439,332.3213)"><path d="m 0,0 v 6.633 6.505 H 4.733 V -19.874 H 0.042 V -4.929 H -13.81 v -14.949 h -4.727 v 32.995 h 4.631 l 0,-13.117 z" style="fill:#000000;fill-opacity:1;fill-rule:nonzero;stroke:none" id="path60"/></g><g id="g62" transform="translate(255.0947,324.6699)"><path d="m 0,0 c -0.808,-3.375 -2.373,-6.14 -4.796,-8.39 -8.269,-7.679 -21.72,-4.324 -25.8,6.419 -3.855,10.15 2.216,20.806 12.915,22.671 7.792,1.359 16.208,-4.443 17.373,-12.115 -1.396,0 -2.774,-0.032 -4.148,0.03 -0.25,0.011 -0.596,0.363 -0.707,0.634 -2.377,5.869 -8.249,7.688 -12.782,6.586 -5.535,-1.345 -9.314,-6.265 -9.202,-11.934 0.115,-5.912 3.851,-10.414 9.566,-11.531 5.268,-1.029 10.39,1.655 12.508,6.627 0.341,0.8 0.766,1.069 1.6,1.019 C -2.367,-0.051 -1.253,0 0,0" style="fill:#000000;fill-opacity:1;fill-rule:nonzero;stroke:none" id="path64"/></g><g id="g66" transform="translate(383.8662,328.9014)"><path d="m 0,0 c 4.609,-5.503 9.138,-10.91 13.843,-16.527 -2.111,0 -3.965,-0.027 -5.818,0.027 -0.278,0.008 -0.598,0.343 -0.811,0.6 -3.847,4.644 -7.682,9.298 -11.514,13.956 -0.726,0.882 -0.8,2.638 -0.119,3.548 3.537,4.734 7.081,9.464 10.653,14.172 0.222,0.292 0.703,0.53 1.074,0.543 1.634,0.058 3.272,0.025 5.221,0.025 C 8.288,10.812 4.183,5.456 0,0" style="fill:#000000;fill-opacity:1;fill-rule:nonzero;stroke:none" id="path68"/></g><path d="m 378.125,312.432 h -4.604 v 32.747 h 4.604 z" style="fill:#000000;fill-opacity:1;fill-rule:nonzero;stroke:none" id="path70"/></g></g></g></svg>