<svg xmlns="http://www.w3.org/2000/svg" width="140" height="19" version="1.2" viewBox="0 0 2048 280"><path fill-rule="evenodd" d="M1148 54h21l19 3 12 3 19 8 16 10 10 9 8 7 11 14 7 12 6 16 3 15 1 10 13-1h202V58l1-1h75l22 2 21 5 16 7 16 10 12 11 8 9 9 15 6 16 3 16 2 12h215V57h146v24l-118 1v69l97-1 1 1v24l-98 1v75h118v26h-145l-1-1V168l-79 1h-42l-94-1-2 20-4 16-7 16-7 11-11 13-14 11-19 10-21 7-20 4-15 1h-70V168h-216v9l-4 20-6 15-9 15-9 11-10 10-14 10-14 8-20 8-14 4-20 2-21-1-14-3-16-6-17-8-15-10-12-11-7-7-7-10-10-19-5-18-3-18H820l-76-1 9 10 9 9 7 8 13 14 7 8 14 15 12 13 9 10 14 15 3 5-1 3-31-1-7-7-7-8-13-14-7-8-12-13-7-7-7-8-9-10-12-13-9-10-10-12 1-4 8-10 13-15 9-11 10-11 9-11 10-11 9-11 9-10 9-11 6-5h30v3l-9 10-10 11-7 8-12 14-10 11-9 11-10 11-9 11-9 9-2 4 290-1 2-15 7-21 9-16 7-9 9-10 11-9 15-10 18-8 14-4zm3 25-16 2-18 6-15 8-11 9-11 11-8 13-5 11-4 13-1 8 5 1h92l95-1-2-12-6-17-10-16-13-13-10-7-17-9-16-5-16-2zm374 2-1 1v79h122l13-1 1-2-5-20-6-13-6-10-8-9-12-9-16-8-13-4-18-3-17-1zm-463 87 1 11 5 17 7 14 12 15 11 9 11 7 13 6 14 4 12 2h20l20-4 15-6 12-7 10-8 11-11 9-14 5-12 4-16v-7zm462 0v83h41l17-1 18-4 15-6 10-6 10-8 7-7 9-14 5-13 3-13v-11z" style="fill:#232223"/><path d="m255 53 4 2 49 49v2h2l4 5 5 4v2l3 1 7 8 73 73 7 8 9 9 2 1 1-160h27l1 4v220l-4-2-11-12-7-8-98-98-7-8-37-37-3-2 1 6v157l-6 1-22-1z" style="fill:#222122"/><path d="m677 57 28 1-1 219h-27l-1-1V58z" style="fill:#262425"/><path d="M0 58h27v219H8l-8-1z" style="fill:#211f20"/><path d="M0 1h26l1 26v5l-1 1H1l-1-1z" style="fill:red"/></svg>