<?xml version="1.0" encoding="utf-8"?>
<!-- Generator: Adobe Illustrator 29.8.3, SVG Export Plug-In . SVG Version: 9.03 Build 0)  -->
<svg version="1.0" id="Layer_1" xmlns="http://www.w3.org/2000/svg" xmlns:xlink="http://www.w3.org/1999/xlink" x="0px" y="0px"
	 viewBox="0 0 164.92 82.13" style="enable-background:new 0 0 164.92 82.13;" xml:space="preserve">
<style type="text/css">
	.st0{fill:#FF350D;}
</style>
<g>
	<polygon class="st0" points="121.42,0 65.91,27.02 55.68,24.98 51.87,58.46 30.56,44.58 75.6,5.79 45.24,14.02 27.33,30.9 
		31.93,18.02 21.97,7.71 0,74.39 11.83,74.34 19.31,53.38 49.83,82.13 52.04,75.97 64.02,77.2 67.29,41.83 74.23,38.88 71.09,65.58 
		84.26,75.49 88.7,32.72 118.41,20.08 	"/>
	<polygon class="st0" points="118.76,54.23 134.7,39.85 138.58,26.5 96.01,35.41 92.12,50.11 109.9,46.12 90.11,60.48 89.84,75.7 
		162.87,60.66 164.92,45.49 	"/>
</g>
</svg>
