<svg xmlns="http://www.w3.org/2000/svg" width="235.105" height="67.588" viewBox="0 0 235.105 67.588">
  <g id="Grupo_125222" data-name="Grupo 125222" transform="translate(3185.429 15748.012)">
    <path id="Trazado_55241" data-name="Trazado 55241" d="M349.228,270.579c1.565-.051,2.891-.068,4.3-.068,1.5,0,2.959.017,4.7.068.05-1.14.083-2.262.066-3.4h-.236a7.078,7.078,0,0,1-1.668,2.3,2.2,2.2,0,0,1-1.582.63c-1.955,0-1.955-1.769-1.955-2.943v-4.627c0-2.279.406-3.334,1.648-3.606v-.255c-.85.051-1.7.068-2.6.068-.867,0-1.752-.017-2.619-.068v.255c1.121.255,1.531,1.276,1.531,3.606v4.185c0,2.16-.529,3.368-1.582,3.606Zm-3.962-3.4a6.533,6.533,0,0,1-1.993,2.585,2.45,2.45,0,0,1-1.666.375c-1.156,0-1.547-1.5-1.547-3.1v-2.467h1.428a2.469,2.469,0,0,1,2.092,1.854h.256c-.035-.578-.035-1.343-.035-2.126,0-.748.017-1.5.035-2.041h-.256a2.507,2.507,0,0,1-2.092,1.888H340.06v-5.018c.407-.017.833-.034,1.258-.034,1.633,0,2.772,1.055,3.537,2.875h.256c.018-1.106,0-2.194-.051-3.3-2.347.034-3.929.051-5.273.051-1.156,0-2.16-.017-3.3-.051v.255c1.141.323,1.532,1.361,1.532,3.606v4.185c0,2.16-.528,3.368-1.583,3.606v.255c1.565-.051,2.893-.068,4.237-.068,1.43,0,2.892.017,4.763.068.067-1.14.084-2.262.084-3.4Zm-12.215-8.505H323.56l-.238,3.249h.254c.783-1.31,1.871-2.841,3.641-2.841h.017l-.017,7.978c0,2.075-.545,2.994-1.77,3.266v.255c.971-.051,1.922-.068,2.86-.068s1.886.017,2.855.068v-.255c-1.258-.255-1.752-1.242-1.768-3.266l-.017-7.978h.017c1.768,0,2.858,1.531,3.639,2.841h.256ZM314.34,270.426c-1.94,0-3.231-1.735-3.231-5.818,0-4.048,1.291-5.783,3.231-5.783s3.232,1.735,3.232,5.783c0,4.083-1.293,5.818-3.232,5.818m0,.357a6.165,6.165,0,1,0-5.868-6.175,5.771,5.771,0,0,0,5.868,6.175m-10.768-3.793v-4.865c0-1.888.512-2.96,1.531-3.2v-.255c-.9.034-1.871.068-2.619.068s-1.683-.034-2.568-.068v.255c1.225.255,1.615.953,1.615,2.926v2.3h-5.2v-2.3c0-1.956.391-2.671,1.616-2.926v-.255c-.884.034-1.82.068-2.568.068s-1.7-.034-2.62-.068v.255c1.021.238,1.531,1.31,1.531,3.2v4.865c0,1.939-.527,3.062-1.582,3.334v.255c.936-.051,1.8-.068,2.671-.068s1.718.017,2.619.068v-.255c-1.259-.238-1.667-.987-1.667-3.1v-2.654h5.2v2.654c0,2.109-.408,2.858-1.666,3.1v.255c.9-.051,1.769-.068,2.619-.068.868,0,1.752.017,2.67.068v-.255c-1.053-.272-1.582-1.4-1.582-3.334m-20.819-8.25c-.578,0-1.173-.034-1.854-.068v.255c1.089.272,1.65,1.582,1.65,3.4V267.3l-7.009-8.624c-.39.034-.849.051-1.326.051s-.969-.017-1.5-.051v.255c1.411.323,1.53,2.058,1.53,3.606v4.185c0,2.16-.527,3.368-1.583,3.606v.255c.665-.051,1.243-.068,1.822-.068s1.173.017,1.837.068v-.255c-1.089-.289-1.633-1.5-1.633-3.606v-5.512L282.5,270.7h.494v-8.369c0-1.837.527-3.147,1.564-3.4v-.255c-.646.034-1.225.068-1.8.068m-21.908,7.433,2.126-4.882,1.973,4.882Zm7.042,1.293-3.931-9.049H263.7l-3.98,9.066c-.612,1.395-1.259,2.5-2.075,2.841v.255c.391-.034,1.037-.068,1.735-.068s1.428.034,1.973.068v-.255c-1.429-.374-1.48-1.888-.766-3.572l.051-.136h4.474l.068.153c.7,1.735.851,3.146-.646,3.555v.255c.8-.051,1.769-.085,2.754-.085s1.958.034,2.74.085v-.255c-1.021-.357-1.633-1.65-2.143-2.858m-20.276-2.892V259.08c.408-.017,1-.034,1.378-.034,1.259,0,2.092.97,2.092,2.586,0,1.837-.714,2.942-2.16,2.942Zm5.409,2.96-1.752-2.977a3.291,3.291,0,0,0,2.3-2.755c0-2.093-2.144-3.13-4.508-3.13h-5.018v.255c1.089.238,1.531,1.276,1.531,3.266v4.525c0,2.16-.527,3.385-1.582,3.606v.255c.9-.051,1.786-.068,2.67-.068s1.77.017,2.637.068v-.255c-1.65-.323-1.684-2.263-1.684-3.606v-1.752h.578c1,.017,1.276.561,1.888,1.616l1.123,1.939a13.943,13.943,0,0,1,.936,2.058c.561-.017,1.122-.034,1.786-.034.646,0,1.258.017,1.82.034v-.255c-.766-.187-1.65-.97-2.722-2.79m-18,3.249a8.057,8.057,0,0,0,4.372-1.361v-1.684a2.082,2.082,0,0,1,1.36-2.245v-.255h-5.6v.255a2.728,2.728,0,0,1,2.143,2.79v1.309a3.519,3.519,0,0,1-2.263.834c-2.448,0-3.741-2.075-3.741-5.665,0-3.861,1.463-5.919,3.164-5.919,1.922,0,4.133,2.79,4.643,4.355h.256q.025-1.761-.052-3.522a8.323,8.323,0,0,0-4.354-1.207,5.991,5.991,0,0,0-6.294,6.14,6.066,6.066,0,0,0,6.362,6.175" transform="translate(-3360.606 -16006.43)" fill="#6b6660"/>
    <path id="Trazado_55242" data-name="Trazado 55242" d="M334.123,332.123h-6.961l-.174,2.383h.186c.574-.961,1.373-2.083,2.67-2.083h.013l-.013,5.85c0,1.522-.4,2.2-1.3,2.395v.187c.711-.037,1.41-.05,2.1-.05s1.384.013,2.1.05v-.187c-.924-.187-1.285-.91-1.3-2.395l-.013-5.85h.013c1.3,0,2.1,1.122,2.67,2.083h.186Zm-18.133,5.5,1.559-3.58,1.447,3.58Zm5.164.948-2.883-6.636h-.187l-2.918,6.649a3.861,3.861,0,0,1-1.523,2.083v.187c.287-.025.761-.05,1.273-.05s1.049.025,1.447.05v-.187c-1.047-.274-1.084-1.384-.562-2.619l.039-.1h3.281l.049.112c.512,1.272.623,2.308-.475,2.607v.187c.588-.037,1.3-.062,2.022-.062s1.435.025,2.008.062v-.187c-.748-.262-1.2-1.21-1.571-2.1m-18.291-2.12v-4.029c.3-.013.736-.025,1.01-.025.924,0,1.535.711,1.535,1.9,0,1.347-.524,2.158-1.584,2.158Zm3.967,2.17-1.285-2.183a2.411,2.411,0,0,0,1.683-2.02c0-1.535-1.57-2.3-3.3-2.3h-3.68v.188c.8.174,1.123.935,1.123,2.395v3.318c0,1.584-.388,2.482-1.162,2.644v.187c.662-.037,1.311-.05,1.959-.05s1.3.013,1.934.05v-.187c-1.21-.237-1.235-1.659-1.235-2.644v-1.285h.424c.735.012.936.411,1.385,1.185l.822,1.422a10.192,10.192,0,0,1,.687,1.509c.412-.012.823-.025,1.309-.025s.924.013,1.336.025v-.187c-.561-.137-1.211-.711-2-2.046m-15.936,2.121c-1.421,0-2.37-1.272-2.37-4.266,0-2.969.949-4.241,2.37-4.241s2.371,1.272,2.371,4.241c0,2.994-.949,4.266-2.371,4.266m0,.262a4.521,4.521,0,1,0-4.3-4.528,4.232,4.232,0,0,0,4.3,4.528m-13.06-.15c.662-.037,1.272-.05,1.884-.05s1.235.013,1.884.05v-.187c-.774-.175-1.161-1.06-1.161-2.644v-3.069c0-1.709.325-2.457,1.122-2.644v-.188c-.661.038-1.259.05-1.845.05s-1.185-.012-1.846-.05v.188c.8.187,1.123.935,1.123,2.644v3.069c0,1.584-.388,2.469-1.161,2.644Zm-10.991-4.4v-4.029c.3-.013.736-.025,1.009-.025.923,0,1.535.711,1.535,1.9,0,1.347-.524,2.158-1.584,2.158Zm3.966,2.17-1.285-2.183a2.411,2.411,0,0,0,1.684-2.02c0-1.535-1.571-2.3-3.306-2.3h-3.679v.188c.8.174,1.123.935,1.123,2.395v3.318c0,1.584-.388,2.482-1.161,2.644v.187c.662-.037,1.31-.05,1.959-.05s1.3.013,1.934.05v-.187c-1.21-.237-1.235-1.659-1.235-2.644v-1.285h.424c.735.012.935.411,1.383,1.185l.825,1.422a10.4,10.4,0,0,1,.686,1.509c.411-.012.822-.025,1.309-.025s.924.013,1.335.025v-.187c-.561-.137-1.21-.711-2-2.046M255.881,332.4c1.136,0,1.822.7,1.822,2.108,0,1.434-.7,2.333-1.921,2.333h-.461v-4.416c.186-.013.385-.025.56-.025m.162,4.74c2.1,0,3.455-1.1,3.455-2.582,0-1.634-1.67-2.433-3.492-2.433H252.7v.188c.8.187,1.123.935,1.123,2.395v3.318c0,1.584-.388,2.469-1.16,2.644v.187c.723-.037,1.409-.05,2.083-.05s1.358.013,2.058.05v-.187c-1.123-.187-1.484-.848-1.484-2.707v-.823Z" transform="translate(-3360.606 -16021.43)" fill="#6b6660"/>
    <g id="Grupo_123694" data-name="Grupo 123694">
      <path id="Trazado_55243" data-name="Trazado 55243" d="M235.042,314.57c4.959,0,7.735-2.59,7.735-5.957,0-6.642-10.6-6.33-10.6-12.411,0-2.183,1.31-3.524,3.212-3.524,2.245,0,3.741,2.12,5.8,5.956h.468c.031-1.809,0-3.524-.094-5.208a11.02,11.02,0,0,0-5.363-1.4c-3.867,0-6.954,2.184-6.954,5.926,0,6.829,10.1,6.3,10.1,12.131a3.657,3.657,0,0,1-3.774,3.867c-3.025,0-4.833-2.9-6.268-6.3h-.469q0,2.9.187,5.52a11.865,11.865,0,0,0,6.019,1.4m-24.819-8.452,4.179-9.636,3.836,9.636Zm12.661,2.433-7.048-16.591h-.467L208.1,308.613c-1.153,2.713-2.308,4.584-3.8,5.177v.437a27.4,27.4,0,0,1,3.118-.156c1.248,0,2.558.062,3.648.156v-.437c-2.681-.624-2.774-3.181-1.464-6.237l.28-.656h8.67l.374.968c1.185,3.025,1.278,5.238-1.372,5.925v.437c1.434-.094,3.056-.156,4.676-.156,1.654,0,3.276.062,4.617.156v-.437c-1.965-.624-2.932-2.807-3.961-5.239m-23.538-1v-8.482c0-3.088.312-5.738,2.775-6.237V292.4q-1.544.095-2.994.1c-.966,0-1.839-.032-2.712-.1l-7.2,17.465L180.947,292.4c-.781.063-1.716.1-2.651.1-1,0-2.027-.032-2.963-.1v.438c2.464.53,2.807,3.025,2.807,6.081v8.326c0,3.8-.873,6.144-2.962,6.549v.437c1.153-.094,2.245-.125,3.336-.125,1.123,0,2.246.031,3.462.125v-.437c-2.089-.437-2.995-2.775-2.995-6.549v-11.2l8.827,18.305h.467l8.046-19.178V307.99c0,3.523-.686,5.4-2.495,5.8v.437c1.215-.094,2.526-.125,3.93-.125,1.371,0,2.868.031,4.459.125v-.437c-2-.437-2.869-2.495-2.869-6.237" transform="translate(-3360.606 -16016.43)" fill="#a45238"/>
      <path id="Trazado_55244" data-name="Trazado 55244" d="M399.713,313.635c-3.651,0-6.488-3.181-6.488-10.665,0-7.422,2.837-10.6,6.488-10.6s6.515,3.181,6.515,10.6c0,7.484-2.867,10.665-6.515,10.665m0,.655c5.613,0,10.57-4.085,10.57-11.32,0-7.141-4.957-11.258-10.57-11.258s-10.572,4.117-10.572,11.258c0,7.235,4.957,11.32,10.572,11.32m-15.457-22.079c-1.09,0-2.213-.062-3.492-.125v.437c2.183.436,3.119,2.775,3.119,6.237v9.854l-12.91-16.528c-.657.063-1.436.094-2.278.094-.81,0-1.683-.031-2.65-.094v.437c2.494.5,2.869,3.43,2.869,6.549v7.921c0,3.773-.873,6.081-2.963,6.486v.437c1.123-.094,2.276-.125,3.4-.125,1.154,0,2.339.031,3.494.125v-.437c-2.246-.468-3.088-2.775-3.088-6.486V296.078l14.158,18.056h.779V298.76c0-3.493.842-5.8,2.9-6.237v-.437c-1.123.063-2.215.125-3.338.125m-23.99,14.314v-7.734c0-4.21.656-5.738,2.777-6.268v-.437c-1.529.094-2.807.125-4.18.125-1.4,0-2.806-.031-4.209-.125v.437c1.809.561,2.494,2.214,2.494,4.9v6.923c0,3.555-2.339,8.825-6.392,8.825a3.779,3.779,0,0,1-3.151-1.4c-.81-.967-1.123-2.744-1.123-5.457v-8.888c0-3.212.532-4.46,2.215-4.9v-.437c-1.248.094-2.525.125-4.084.125-1.187,0-2.746-.031-3.961-.125v.437c2.119.561,2.713,2.276,2.713,6.237v7.328c0,2.9.467,4.959,1.684,6.3a6.038,6.038,0,0,0,4.74,1.9c4.334,0,6.643-3.4,7.547-6.486a14.875,14.875,0,0,0-.156,2.089,13.961,13.961,0,0,0,.591,4.272,32.875,32.875,0,0,1,5.645-.561v-.437c-2.619-.654-3.15-2.682-3.15-6.642M327.053,303.5V292.835c.56-.031,2.088-.063,2.463-.063,2.962,0,4.584,1.84,4.584,5.239,0,3.275-1.528,5.489-4.366,5.489Zm24.791,14.283a11.262,11.262,0,0,1-2.682.312c-4.24,0-8.045-2.215-11.289-6.237a30.429,30.429,0,0,1-4.771-8.14c2.65-.9,4.833-2.962,4.833-5.8,0-3.618-3.648-5.832-8.046-5.832h-8.762v.437c2.058.436,2.807,2.058,2.807,5.707v9.012c0,3.774-.842,5.863-2.9,6.237v.437c1.559-.094,3.057-.125,4.553-.125s2.994.031,4.492.125v-.437c-2.246-.436-3.025-1.964-3.025-6.237v-3.025H328.3c2.058,0,2.744,1.56,4.117,4.273,2.65,5.27,6.113,9.418,12.91,13.472a37.2,37.2,0,0,0,6.768-3.743Zm-38.229-5.645a5.478,5.478,0,0,1-3.837,1.061c-1,0-1.715-.063-2.057-.5a4.367,4.367,0,0,1-.469-2.339v-7.547h2.994c3.15,0,4.865,1.84,4.865,5.177a5.491,5.491,0,0,1-1.5,4.147m-3.494-19.366c2.59,0,4.086,1.684,4.086,4.491,0,3.025-1.777,4.771-3.9,4.771h-3.058v-9.2c.875-.063,1.965-.063,2.869-.063m3.307,9.543c2.744-.686,4.552-2.526,4.552-4.958,0-3.587-3.836-5.271-6.954-5.271h-9.7v.437c1.995.436,2.807,2.12,2.807,5.707v9.012c0,3.742-.781,5.738-2.9,6.237v.437H310c6.143,0,9.012-2.713,9.012-6.081,0-2.526-1.559-4.678-5.582-5.52" transform="translate(-3360.606 -16016.43)" fill="#a45238"/>
      <path id="Trazado_55245" data-name="Trazado 55245" d="M251.71,309.287v-1h41.578v1Z" transform="translate(-3360.606 -16016.43)" fill="#a45238"/>
      <g id="Grupo_123676" data-name="Grupo 123676" transform="translate(-3360.606 -16016.43)">
        <path id="Trazado_55246" data-name="Trazado 55246" d="M292.917,292.458c-.6,0-1.087-.046-1.919-.092v.3c1.6.415,1.71,2.565,1.71,3.721v4.369l-7.166-8.415c-.392.024-.832.047-1.317.047-.579,0-1.2-.023-1.78-.047v.278c1.549.37,1.6,2.289,1.6,3.7v4.16c0,2.081-.485,3.445-1.665,3.723v.277c.625-.046,1.318-.07,1.919-.07.647,0,1.271-.138,1.988-.092v-.277c-1.271-.3-1.71-1.757-1.71-3.722v-5.294l8.159,9.57h.509v-8.206c0-1.156.139-3.328,1.665-3.721v-.3c-.74.046-1.41.092-1.988.092m-12.774,8.484c-.555,1.271-2.127,3.074-3.144,3.074h-.809c-1.2,0-1.572-1.71-1.572-3.212v-2.4h1.225a2.569,2.569,0,0,1,2.52,1.872h.3c-.023-.624-.046-1.271-.046-1.941,0-.786.023-1.6.046-2.311h-.3a2.63,2.63,0,0,1-2.52,1.918h-1.225V292.8c.439-.022.856-.046,1.318-.046,1.664,0,2.936,1.249,3.745,3.028h.3c.024-1.318,0-2.473-.045-3.445-2.566.047-4.208.047-5.756.047-1.2,0-2.265,0-3.491-.047v.278c1.642.393,1.642,2.4,1.642,3.814v3.953c0,1.179-.093,3.445-1.688,3.815v.277c1.642-.07,3.005-.07,4.439-.07,1.618,0,3.212,0,5.27.07.046-1.179.092-2.289.092-3.537Zm-14.492-4.785.116.3c2.1-.877,3.213-1.8,3.213-3.143a1.82,1.82,0,0,0-.994-1.688,17.571,17.571,0,0,0-1.826.716l.046.325a1.223,1.223,0,0,1,.995,1.387,2.32,2.32,0,0,1-1.55,2.1m-7.625,7.883c-.486.022-1.017.022-1.387,0-.694-.07-1.087-.764-1.087-2.312v-8.945H257.4c2.474,0,4.022,1.756,4.022,5.685,0,4.138-1.571,5.526-3.4,5.572m-6.449.439c.67-.046,1.41-.046,2.08-.046,1.48,0,2.982.046,4.253.046,3.26,0,6.242-2.173,6.242-5.917,0-4.023-3.075-6.22-6.659-6.22-.577,0-2.079.047-3.675.047-.694,0-1.548-.023-2.195-.047v.278c1.641.393,1.641,2.4,1.641,3.814v3.953c0,1.133-.07,3.422-1.687,3.815Z" fill="#a45238"/>
      </g>
    </g>
  </g>
</svg>
