<svg xmlns="http://www.w3.org/2000/svg" width="120" height="24" fill="none" viewBox="0 0 120 24"><g fill="#5A2AF9"><path d="M8.61 5.835c-1.41 0-2.05.68-2.05 1.53 0 1.15.89 1.74 3.06 2.45 4.809 1.53 7.109 3.3 7.109 6.9s-2.64 6.46-8.61 6.46c-4.93 0-8.119-2.13-8.119-5.64 0-1.44.49-2.43 1.13-3a.48.48 0 0 1 .37-.19c.21 0 .34.11.46.27 1.44 2.26 3.86 3.74 6.19 3.74 1.56 0 2.51-.49 2.51-1.53s-.92-1.58-3.25-2.26c-3.83-1.17-6.9-2.86-6.9-6.65 0-3.52 2.79-6.33 8.06-6.33 2.939 0 5.459.76 7.109 1.88.28.19.4.41.4.65 0 .82-1.04 2.7-1.96 3.71-.12.14-.28.22-.46.22-.15 0-.31-.05-.43-.16-1.53-1.31-3.25-2.04-4.63-2.04zM24.978.905c.31.05.46.27.46.57 0 .63-1.13 2.92-1.13 4.66 0 .44.15.65.49.65.64 0 1.96-1.17 4.29-1.17 2.94 0 4.72 1.72 4.72 7.17 0 3.9-.43 7.96-.74 9.6-.09.52-.4.74-.83.76-.37 0-1.04.03-1.78.03-.83 0-1.78-.03-2.45-.08-.4-.03-.74-.14-.74-.63 0-.65.8-4.99.8-8.37 0-3.05-.46-3.71-1.59-3.71-1.29 0-2.21 1.04-2.21 4.06 0 4.28.31 7.23.31 7.99 0 .52-.4.63-.8.68-.55.03-1.29.05-2.05.05s-1.59-.03-2.24-.05c-.31-.03-.61-.14-.74-.65-.15-1.15-.28-3.52-.28-6.43 0-4.36.28-9.79 1.13-14.26.12-.55.46-.82.8-.85.74-.08 1.59-.11 2.45-.11.74 0 1.47 0 2.11.08zM35.187 14.375c0-5.4 2.61-9.05 7.78-9.05 5.169 0 7.319 3.49 7.319 9.05 0 6.19-3.37 8.81-7.75 8.81s-7.359-2.62-7.359-8.81zm9.71-.38c0-3.14-.8-4.61-2.15-4.61-1.44 0-2.21 1.47-2.21 4.61s.61 4.47 2.18 4.47 2.18-1.42 2.18-4.47M57.955 23.125c-.58.03-1.29.05-2.08.05s-1.62 0-2.48-.05c-.43-.03-.74-.27-.86-.74-.37-1.39-.61-4.28-.61-7.8 0-4.74.25-6.9.52-7.8.12-.44.34-.6.58-.68.37-.08 1.38-.16 2.33-.16.52 0 1.01 0 1.38.08.34.05.43.25.46.57s.18.44.34.44.31-.08.52-.22c.61-.49 1.26-.95 1.93-.95.55 0 .92.63.92 2.78 0 1.01-.06 1.96-.25 2.45-.15.46-.4.57-.67.57-.37 0-.86-.25-1.44-.25s-1.07.52-1.07 2.64c0 3.44 1.29 7.85 1.29 8.4 0 .35-.18.6-.8.65zM69.264 1.475c.28 0 .43.16.43.35 0 .41-1.01 2.04-1.01 3.35 0 .25.15.38.49.38.4 0 1.04-.11 1.47-.11.28 0 .43.16.49.49.09.46.15 1.15.15 1.85s-.06 1.47-.21 2.15c-.06.25-.25.33-.46.33-.4 0-.92-.14-1.47-.14-.46 0-.58.25-.64.95-.06.46-.09 1.06-.09 1.69 0 2.84.74 6.16 1.47 8.51.03.14.06.22.06.3 0 .22-.12.35-.34.49-1.16.68-3.83 1.09-5.12 1.09-.37 0-.58-.11-.71-.38-.67-1.5-.95-3.76-.95-6.19 0-2.73.34-4.94.37-5.78.03-.3-.09-.41-.37-.46-.15-.03-.31-.05-.4-.05-.31-.05-.49-.22-.49-.57 0-1.14.06-2.32.25-3.68.09-.41.28-.57.55-.57h.46c.4 0 .46-.44.55-1.39.12-1.15.18-1.34.77-1.64 1.47-.76 4.17-.98 4.75-.98zM78.614 23.095a38.79 38.79 0 0 1-4.99 0c-.31-.03-.71-.14-.77-.71-.25-1.83-.41-3.98-.37-6.22.07-3.52.02-3.85.54-6.6.12-.55.46-.65.86-.68.67-.05 1.29-.05 1.87-.05.61 0 1.23 0 1.9.05.46.03.71.22.71.55 0 .6.02.76.02 3.65 0 5.43.82 8.57.82 9.52 0 .33-.28.46-.58.49zm-5.83-17.32c0-1.17.98-1.9 3.06-1.9 2.19 0 3.06.73 3.06 1.9s-.87 1.81-3.06 1.81-3.06-.66-3.06-1.81M86.093 23.125c-.43.03-1.01.05-1.59.05-.61 0-1.32 0-2.05-.05-.52-.03-.83-.19-.89-.95-.21-2.29-.4-4.88-.4-7.96 0-2.1.09-4.44.34-7.06.06-.85.61-1.09 1.38-1.17.52-.05 1.13-.05 1.81-.05s1.38 0 1.72.05c.43.05.58.19.58.49 0 .22-.12.52-.12.79 0 .16.12.27.34.27.8 0 1.99-1.8 4.14-1.8 1.99 0 2.67 1.34 3.43 1.34.889 0 2.179-1.34 4.509-1.34 3.619 0 5.089 3.03 5.089 8.81 0 4.31-.34 6.95-.64 7.85-.15.55-.67.71-1.1.74s-1.039.05-1.689.05-1.38-.03-2.08-.05-.92-.35-.92-.79c0-.79.58-3.44.58-7.99 0-2.86-.34-4.04-1.5-4.04-.98 0-1.81.74-1.81 2.45 0 1.5.06 2.59.06 4.01 0 2.29-.18 4.23-.37 5.45-.09.57-.37.82-.83.84-.55.05-1.29.08-2.02.08-.61 0-1.29-.03-1.87-.05-.58-.05-.71-.27-.71-.65 0-.41.31-5.21.31-8.64 0-2.43-.25-3.44-1.41-3.44-1.29 0-1.93 1.12-1.93 3.74 0 4.83.4 7.77.4 8.34 0 .44-.28.63-.74.68zM113.221 23.185c-5.52 0-7.36-3.76-7.36-8.34 0-6.73 3.86-9.49 8.459-9.49 3.1 0 5.52 1.47 5.52 4.53 0 4.66-4.38 5.21-7.079 6.27-.95.3-1.35.55-1.35 1.01 0 .79.64 1.42 2.12 1.42 2.109 0 4.049-.82 5.239-2.21.18-.14.31-.22.46-.22.43 0 .77.71.77 1.99 0 3.16-3.16 5.04-6.769 5.04zm.43-14.05c-1.69 0-2.85 1.64-2.85 3.52 0 .27.09.49.37.49.18 0 .4-.05.58-.14 1.23-.65 3.309-1.34 3.309-2.64 0-.71-.52-1.23-1.409-1.23"/></g></svg>