<svg xmlns="http://www.w3.org/2000/svg" xml:space="preserve" width="1618.2433" height="594.26898" x="0px" y="0px" viewBox="0 0 397.57001 146"><g fill="#0A7DEB"><path d="M292.562 2.247c0 7.3-6.177 13.477-13.477 13.477-7.3 0-13.477-6.177-13.477-13.477 0-7.3 6.177-13.477 13.477-13.477 7.3 0 13.477 6.177 13.477 13.477zM203.839 106.132c8.423 0 14.6-1.123 20.215-10.669l28.639-63.454c0-2.246-.562-3.931-2.808-3.931h-16.846c-1.685 0-3.931 1.685-4.492 3.931L208.893 79.74c-1.123 2.246-2.808 3.931-5.054 3.931-2.246 0-4.492-1.685-5.054-3.931l-19.654-47.731c-1.123-2.246-2.808-3.931-4.492-3.931h-17.408c-2.246 0-2.808 1.685-2.808 3.931l28.638 63.454c5.615 9.546 12.354 10.669 20.215 10.669zM290.316 102.201c0 2.808-1.685 3.931-3.931 3.931h-14.6c-2.808 0-3.931-1.123-3.931-3.931V32.008c0-2.808 1.685-3.931 3.931-3.931h14.6c2.808 0 3.931 1.123 3.931 3.931zM353.77 87.039c-13.477 0-19.092-6.177-19.654-14.038 0 0 0-38.185-.561-39.869 0-2.246-.562-5.054-4.492-5.054h-15.162c-1.685 0-3.931 1.685-3.931 3.931v40.992c0 21.9 19.654 33.131 43.8 33.131 24.146 0 43.8-11.231 43.8-33.131V32.008c0-2.246-1.685-3.931-3.931-3.931h-15.162c-3.931 0-4.492 2.808-4.492 5.054 0 1.685-.562 39.869-.562 39.869 1.123 0 0 0 0 0-.561 7.862-6.176 14.039-19.653 14.039zM134.77 67.385c0 37.623-30.323 67.385-67.385 67.385C29.762 134.77 0 105.009 0 67.385 0 30.324 29.762 0 67.385 0c37.061.001 67.385 30.324 67.385 67.385ZM67.385 11.793c-30.885 0-56.154 24.708-56.154 55.592s25.269 56.154 56.154 56.154c30.885 0 55.592-25.269 55.592-56.154 0-30.885-24.707-55.592-55.592-55.592z" style="fill:#ffb900;fill-opacity:1" transform="translate(0 11.23)"/><path d="M105.57 66.824c0-6.177-1.123-11.792-8.985-15.723L46.608 28.078c-2.246 0-3.369.562-3.369 2.246v13.477c0 1.123 1.123 2.808 2.808 3.369l38.185 15.723c1.685 1.123 3.369 2.246 3.369 4.492 0 1.685-1.685 3.369-3.369 3.931L46.046 87.039c-1.685.562-2.808 2.246-2.808 3.369v14.038c0 1.123 1.123 1.685 3.369 1.685l49.978-23.022c7.862-3.931 8.985-8.985 8.985-15.723z" style="fill:#ffb900;fill-opacity:1" transform="translate(0 11.23)"/></g></svg>